<?xml version="1.0" encoding="utf-8"?>
<!-- Generator: Adobe Illustrator 22.1.0, SVG Export Plug-In . SVG Version: 6.00 Build 0)  -->
<svg version="1.1" id="Capa_1" xmlns="http://www.w3.org/2000/svg" xmlns:xlink="http://www.w3.org/1999/xlink" x="0px" y="0px"
	 viewBox="0 0 612 792" style="enable-background:new 0 0 612 792;" xml:space="preserve">
<style type="text/css">
	.st0{fill:url(#SVGID_1_);}
	.st1{fill:url(#SVGID_2_);}
	.st2{fill:url(#SVGID_3_);}
	.st3{fill:url(#SVGID_4_);}
	.st4{fill:url(#SVGID_5_);}
	.st5{fill:url(#SVGID_6_);}
	.st6{fill:url(#SVGID_7_);}
	.st7{fill:url(#SVGID_8_);}
	.st8{fill:url(#XMLID_2_);}
	.st9{fill:url(#XMLID_3_);}
	.st10{fill:#FFFFFF;}
	.st11{fill:url(#SVGID_9_);}
	.st12{fill:url(#SVGID_10_);}
	.st13{fill:url(#SVGID_11_);}
	.st14{fill:url(#SVGID_12_);}
	.st15{fill:url(#SVGID_13_);}
	.st16{fill:url(#SVGID_14_);}
	.st17{fill:url(#SVGID_15_);}
	.st18{fill:url(#SVGID_16_);}
	.st19{fill:#F5A8A0;}
	.st20{fill:url(#SVGID_17_);}
	.st21{fill:url(#SVGID_18_);}
	.st22{fill:url(#SVGID_19_);}
	.st23{fill:#161619;}
	.st24{fill:url(#SVGID_20_);}
	.st25{fill:url(#SVGID_21_);}
	.st26{fill:url(#SVGID_22_);}
	.st27{fill:url(#SVGID_23_);}
	.st28{fill:url(#SVGID_24_);}
	.st29{fill:url(#SVGID_25_);}
	.st30{fill:url(#SVGID_26_);}
	.st31{fill:url(#SVGID_27_);}
	.st32{fill:url(#SVGID_28_);}
	.st33{fill:url(#SVGID_29_);}
	.st34{fill:url(#SVGID_30_);}
</style>
<g>
	<g>
		
			<linearGradient id="SVGID_1_" gradientUnits="userSpaceOnUse" x1="119.8" y1="16887.0996" x2="128.4" y2="16887.0996" gradientTransform="matrix(1 0 0 1 0 -16676)">
			<stop  offset="0" style="stop-color:#FF8A00"/>
			<stop  offset="0.3114" style="stop-color:#F3661F"/>
			<stop  offset="1" style="stop-color:#DA1B60"/>
		</linearGradient>
		<circle class="st0" cx="124.1" cy="211.1" r="4.3"/>
		
			<linearGradient id="SVGID_2_" gradientUnits="userSpaceOnUse" x1="118.947" y1="16835.6992" x2="127.547" y2="16835.6992" gradientTransform="matrix(1 0 0 1 0 -16676)">
			<stop  offset="0" style="stop-color:#FF8A00"/>
			<stop  offset="0.3114" style="stop-color:#F3661F"/>
			<stop  offset="1" style="stop-color:#DA1B60"/>
		</linearGradient>
		<circle class="st1" cx="123.2" cy="159.7" r="4.3"/>
		
			<linearGradient id="SVGID_3_" gradientUnits="userSpaceOnUse" x1="121.4194" y1="16936.8008" x2="130.0194" y2="16936.8008" gradientTransform="matrix(1 0 0 1 0 -16676)">
			<stop  offset="0" style="stop-color:#FF8A00"/>
			<stop  offset="0.3114" style="stop-color:#F3661F"/>
			<stop  offset="1" style="stop-color:#DA1B60"/>
		</linearGradient>
		<circle class="st2" cx="125.7" cy="260.8" r="4.3"/>
		
			<linearGradient id="SVGID_4_" gradientUnits="userSpaceOnUse" x1="123.1361" y1="16987.6992" x2="131.7361" y2="16987.6992" gradientTransform="matrix(1 0 0 1 0 -16676)">
			<stop  offset="0" style="stop-color:#FF8A00"/>
			<stop  offset="0.3114" style="stop-color:#F3661F"/>
			<stop  offset="1" style="stop-color:#DA1B60"/>
		</linearGradient>
		<circle class="st3" cx="127.4" cy="311.7" r="4.3"/>
	</g>
	<g>
		
			<linearGradient id="SVGID_5_" gradientUnits="userSpaceOnUse" x1="67.2313" y1="16799.3008" x2="75.8313" y2="16799.3008" gradientTransform="matrix(1 0 0 1 0 -16676)">
			<stop  offset="0" style="stop-color:#FF8A00"/>
			<stop  offset="0.3114" style="stop-color:#F3661F"/>
			<stop  offset="1" style="stop-color:#DA1B60"/>
		</linearGradient>
		<circle class="st4" cx="71.5" cy="123.3" r="4.3"/>
		
			<linearGradient id="SVGID_6_" gradientUnits="userSpaceOnUse" x1="67.5281" y1="16850.3008" x2="76.1281" y2="16850.3008" gradientTransform="matrix(1 0 0 1 0 -16676)">
			<stop  offset="0" style="stop-color:#FF8A00"/>
			<stop  offset="0.3114" style="stop-color:#F3661F"/>
			<stop  offset="1" style="stop-color:#DA1B60"/>
		</linearGradient>
		<circle class="st5" cx="71.8" cy="174.3" r="4.3"/>
		
			<linearGradient id="SVGID_7_" gradientUnits="userSpaceOnUse" x1="67.8437" y1="16898.4004" x2="76.4437" y2="16898.4004" gradientTransform="matrix(1 0 0 1 0 -16676)">
			<stop  offset="0" style="stop-color:#FF8A00"/>
			<stop  offset="0.3114" style="stop-color:#F3661F"/>
			<stop  offset="1" style="stop-color:#DA1B60"/>
		</linearGradient>
		<circle class="st6" cx="72.1" cy="222.4" r="4.3"/>
		
			<linearGradient id="SVGID_8_" gradientUnits="userSpaceOnUse" x1="68.9503" y1="16950.9004" x2="77.5503" y2="16950.9004" gradientTransform="matrix(1 0 0 1 0 -16676)">
			<stop  offset="0" style="stop-color:#FF8A00"/>
			<stop  offset="0.3114" style="stop-color:#F3661F"/>
			<stop  offset="1" style="stop-color:#DA1B60"/>
		</linearGradient>
		<circle class="st7" cx="73.3" cy="274.9" r="4.3"/>
	</g>
</g>
<g>
	<g id="XMLID_780_">
		
			<linearGradient id="XMLID_2_" gradientUnits="userSpaceOnUse" x1="42.1" y1="282.15" x2="510.5" y2="282.15" gradientTransform="matrix(1 0 0 -1 0 792)">
			<stop  offset="0" style="stop-color:#FF8A00"/>
			<stop  offset="0.3114" style="stop-color:#F3661F"/>
			<stop  offset="1" style="stop-color:#DA1B60"/>
		</linearGradient>
		<path id="XMLID_816_" class="st8" d="M95.9,667h360.8c29.4,0,53.8-23.8,53.8-53.8V406.5c0-29.4-23.8-53.8-53.8-53.8H95.9
			c-29.4,0-53.8,23.8-53.8,53.8v206.7C42.1,643.1,66.6,667,95.9,667z M67.2,406.5c0-15.9,12.8-28.7,28.7-28.7h360.8
			c15.9,0,28.7,12.8,28.7,28.7v206.7c0,15.9-12.8,28.7-28.7,28.7H95.9c-15.9,0-28.7-12.8-28.7-28.7V406.5z"/>
		
			<linearGradient id="XMLID_3_" gradientUnits="userSpaceOnUse" x1="6.6" y1="69.9" x2="547.2001" y2="69.9" gradientTransform="matrix(1 0 0 -1 0 792)">
			<stop  offset="0" style="stop-color:#FF8A00"/>
			<stop  offset="0.3114" style="stop-color:#F3661F"/>
			<stop  offset="1" style="stop-color:#DA1B60"/>
		</linearGradient>
		<path id="XMLID_781_" class="st9" d="M509.9,681.1H43.3c-20.2,0-36.7,16.5-36.7,36.7v8.6c0,20.2,16.5,36.7,36.7,36.7h467.2
			c20.2,0,36.7-16.5,36.7-36.7v-8.6C546.6,697.6,530.1,681.1,509.9,681.1z M522.2,726.3c0,6.7-5.5,11.6-11.6,11.6H43.3
			c-6.7,0-11.6-5.5-11.6-11.6v-8.6c0-6.7,5.5-11.6,11.6-11.6h467.2c6.7,0,11.6,5.5,11.6,11.6L522.2,726.3L522.2,726.3z"/>
	</g>
	<path class="st10" d="M530.4,393.4l-0.2,3.6c-0.2,3.6,0.9,7.1,3.1,10l2.2,2.9c4.5,5.9,4.1,14.1-0.9,19.6l-2.5,2.7
		c-2.4,2.6-3.8,6.1-4,9.6l-0.2,3.6c-0.3,7.4-5.9,13.5-13.3,14.4l-3.6,0.5c-3.6,0.5-6.8,2.2-9.3,4.8l-2.5,2.6
		c-5,5.5-13.2,6.5-19.5,2.5l-3.1-1.9c-3-1.9-6.6-2.7-10.2-2.3l-3.6,0.3c-7.3,0.9-14.3-3.5-16.5-10.6l-1.1-3.5
		c-1.1-3.4-3.3-6.4-6.3-8.3l-3.1-1.9c-6.2-4-8.7-11.9-5.9-18.7l1.4-3.4c1.4-3.3,1.5-7,0.5-10.4l-1.1-3.5c-2.2-7.1,0.9-14.7,7.5-18.1
		l3.2-1.7c3.2-1.7,5.7-4.4,7.1-7.7l1.4-3.4c2.8-6.8,10.2-10.6,17.4-9l3.6,0.7c3.5,0.8,7.2,0.3,10.4-1.3l3.2-1.7
		c6.6-3.4,14.6-1.6,19.1,4.3l2.3,2.9c2.2,2.8,5.3,4.8,8.8,5.6l3.5,0.8C525.8,379.4,530.8,386,530.4,393.4z"/>
	
		<linearGradient id="SVGID_9_" gradientUnits="userSpaceOnUse" x1="547.0564" y1="347.0999" x2="570.6077" y2="347.0999" gradientTransform="matrix(1 0 0 -1 0 792)">
		<stop  offset="0" style="stop-color:#FF8A00"/>
		<stop  offset="0.3114" style="stop-color:#F3661F"/>
		<stop  offset="1" style="stop-color:#DA1B60"/>
	</linearGradient>
	<path class="st11" d="M558.8,456.7c-6.5,0-11.8-5.3-11.8-11.8s5.3-11.8,11.8-11.8s11.8,5.3,11.8,11.8
		C570.6,451.4,565.3,456.6,558.8,456.7z M558.8,438.7c-3.4,0-6.2,2.8-6.2,6.2s2.8,6.2,6.2,6.2s6.2-2.8,6.2-6.2
		S562.2,438.7,558.8,438.7L558.8,438.7z"/>
	
		<linearGradient id="SVGID_10_" gradientUnits="userSpaceOnUse" x1="446.3223" y1="374.3278" x2="517.8777" y2="374.3278" gradientTransform="matrix(1 0 0 -1 0 792)">
		<stop  offset="0" style="stop-color:#FF8A00"/>
		<stop  offset="0.3114" style="stop-color:#F3661F"/>
		<stop  offset="1" style="stop-color:#DA1B60"/>
	</linearGradient>
	<path class="st12" d="M512.5,401.8l-0.1,2.4c-0.1,2.3,0.6,4.7,2,6.5l1.4,1.9c2.9,3.8,2.7,9.2-0.6,12.8l-1.5,1.8
		c-1.6,1.7-2.5,4-2.6,6.3l-0.1,2.4c-0.3,4.8-3.9,8.7-8.7,9.4l-2.4,0.3c-2.3,0.3-4.5,1.4-6,3.1l-1.6,1.7c-3.3,3.6-8.6,4.3-12.7,1.6
		l-2-1.3c-2-1.3-4.3-1.8-6.7-1.5l-2.4,0.4c-4.8,0.6-9.4-2.3-10.8-6.9l-0.7-2.3c-0.7-2.2-2.2-4.1-4.1-5.4l-2-1.3
		c-4-2.6-5.6-7.8-3.7-12.2l0.9-2.2c0.9-2.2,0.9-4.6,0.2-6.8l-0.7-2.2c-1.4-4.6,0.6-9.6,4.9-11.8l2.1-1.1c2.1-1.1,3.7-2.9,4.6-5
		l0.9-2.2c1.9-4.5,6.7-7,11.4-5.9l2.3,0.5c2.3,0.5,4.7,0.2,6.8-0.9l2.1-1.1c4.3-2.2,9.6-1,12.5,2.8l1.4,1.9c1.4,1.9,3.4,3.2,5.7,3.7
		l2.3,0.5C509.4,392.8,512.6,397,512.5,401.8z"/>
	
		<linearGradient id="SVGID_11_" gradientUnits="userSpaceOnUse" x1="412.6" y1="280.1" x2="485" y2="280.1" gradientTransform="matrix(1 0 0 -1 0 792)">
		<stop  offset="0" style="stop-color:#FF8A00"/>
		<stop  offset="0.3114" style="stop-color:#F3661F"/>
		<stop  offset="1" style="stop-color:#DA1B60"/>
	</linearGradient>
	<polygon class="st13" points="445.8,560.2 437,535.3 412.6,545.1 448.1,463.6 453.2,465.9 423.2,534.7 440.3,527.9 446.4,545.1 
		479.9,471.1 485,473.4 	"/>
	
		<linearGradient id="SVGID_12_" gradientUnits="userSpaceOnUse" x1="492.5" y1="286.2866" x2="565" y2="286.2866" gradientTransform="matrix(1 0 0 -1 0 792)">
		<stop  offset="0" style="stop-color:#FF8A00"/>
		<stop  offset="0.3114" style="stop-color:#F3661F"/>
		<stop  offset="1" style="stop-color:#DA1B60"/>
	</linearGradient>
	<polygon class="st14" points="531.7,556.7 492.5,469.8 497.6,467.5 531,541.6 537.2,524.4 554.2,531.2 520.7,457.1 525.8,454.8 
		565,541.6 540.5,531.8 	"/>
	
		<linearGradient id="SVGID_13_" gradientUnits="userSpaceOnUse" x1="424.3863" y1="374.4416" x2="539.5165" y2="374.4416" gradientTransform="matrix(1 0 0 -1 0 792)">
		<stop  offset="0" style="stop-color:#FF8A00"/>
		<stop  offset="0.3114" style="stop-color:#F3661F"/>
		<stop  offset="1" style="stop-color:#DA1B60"/>
	</linearGradient>
	<path class="st15" d="M486.4,475.5c-3.5,0-6.8-1-9.7-2.8l-3.1-1.9c-2.5-1.6-5.4-2.2-8.3-1.9l-3.6,0.4c-8.7,1.1-16.9-4.1-19.6-12.5
		l-1.1-3.5c-0.9-2.8-2.7-5.2-5.2-6.8l-3.1-1.9c-7.4-4.7-10.3-14.1-6.9-22.1l1.4-3.4c1.1-2.7,1.3-5.8,0.4-8.6l-1.1-3.5
		c-2.6-8.4,1.1-17.4,8.9-21.4l3.2-1.6c2.6-1.4,4.6-3.6,5.8-6.3l1.4-3.4c3.4-8.1,12-12.6,20.6-10.7l3.5,0.8c2.9,0.7,5.9,0.3,8.5-1
		l3.2-1.7c7.8-4.1,17.4-2,22.7,5l2.2,2.9c1.8,2.3,4.3,3.9,7.2,4.6l3.5,0.8c8.6,1.9,14.5,9.7,14.1,18.4l-0.2,3.7
		c-0.1,2.9,0.8,5.8,2.5,8.1l2.2,2.9c5.3,7,4.9,16.7-1,23.2l-2.4,2.7c-2,2.2-3.1,4.9-3.3,7.9l-0.2,3.6c-0.4,8.8-7,16-15.7,17.1
		l-3.6,0.5c-2.9,0.4-5.5,1.8-7.5,3.9l-2.5,2.7C496.3,473.4,491.5,475.5,486.4,475.5z M466.9,463.1c3.5,0,6.8,1,9.7,2.8l3.1,1.9
		c5.1,3.3,11.8,2.4,15.9-2.1l2.5-2.7c2.9-3.1,6.8-5.1,11-5.6l3.6-0.4c6-0.8,10.6-5.7,10.8-11.8l0.2-3.6c0.2-4.2,1.9-8.3,4.8-11.4
		l2.5-2.7c4.1-4.4,4.4-11.2,0.7-16l-2.2-2.9c-2.6-3.4-3.9-7.5-3.7-11.8l0.2-3.6c0.3-6-3.8-11.4-9.7-12.7l-3.5-0.8
		c-4.1-0.9-7.8-3.3-10.4-6.6l-2.2-2.9c-3.7-4.8-10.3-6.3-15.6-3.5l-3.2,1.7c-3.8,1.9-8.1,2.5-12.2,1.6l-3.6-0.8
		c-5.9-1.3-11.9,1.8-14.2,7.4L450,380c-1.6,3.9-4.6,7.1-8.4,9.1l-3.2,1.7c-5.4,2.8-8,9-6.1,14.8l1.1,3.5c1.3,4.1,1.1,8.4-0.6,12.3
		l-1.4,3.4c-2.3,5.6-0.3,12,4.8,15.3l3.1,1.9c3.6,2.3,6.2,5.8,7.5,9.8l1.1,3.7c1.8,5.8,7.5,9.4,13.5,8.6l3.6-0.5
		C465.3,463.2,466.1,463.1,466.9,463.1z"/>
	
		<linearGradient id="SVGID_14_" gradientUnits="userSpaceOnUse" x1="443.4923" y1="374.5224" x2="520.722" y2="374.5224" gradientTransform="matrix(1 0 0 -1 0 792)">
		<stop  offset="0" style="stop-color:#FF8A00"/>
		<stop  offset="0.3114" style="stop-color:#F3661F"/>
		<stop  offset="1" style="stop-color:#DA1B60"/>
	</linearGradient>
	<path class="st16" d="M484.9,456.4c-2.4,0-4.8-0.7-6.9-2l-2-1.3c-1.4-0.9-3.1-1.3-4.8-1.1l-2.4,0.3c-6.2,0.8-12-2.9-13.8-8.9
		l-0.7-2.3c-0.5-1.6-1.6-3-3-3.9l-2-1.3c-5.2-3.4-7.2-10-4.8-15.7l0.9-2.2c0.6-1.6,0.7-3.3,0.2-4.9l-0.7-2.3
		c-1.9-5.9,0.8-12.3,6.3-15.2l2.1-1.1c1.5-0.8,2.7-2.1,3.3-3.6l0.9-2.2c2.4-5.7,8.5-8.9,14.6-7.5l2.3,0.5c1.6,0.4,3.4,0.1,4.9-0.6
		l2-1.1c5.5-2.9,12.3-1.3,16,3.6l1.4,1.9c1,1.3,2.5,2.3,4.1,2.6l2.3,0.5c6.1,1.4,10.3,6.9,10,13.1l0,0l-0.1,2.4
		c-0.1,1.7,0.4,3.3,1.5,4.7l1.4,1.9c3.8,4.9,3.5,11.9-0.7,16.4l-1.6,1.7c-1.1,1.2-1.8,2.8-1.9,4.5l-0.1,2.2
		c-0.3,6.2-5,11.3-11.1,12.1l-2.4,0.3c-1.7,0.2-3.2,1-4.3,2.3l-1.6,1.7C491.9,454.9,488.5,456.4,484.9,456.4z M472.1,446.4
		c2.4,0,4.8,0.7,6.9,2l2,1.3c2.9,1.9,6.8,1.4,9.1-1.2l1.6-1.7c2-2.2,4.8-3.6,7.8-4l2.4-0.3c3.5-0.5,6.1-3.3,6.2-6.8l0.1-2.4
		c0.1-3,1.3-5.8,3.4-8l1.6-1.7c2.4-2.6,2.5-6.4,0.4-9.2l-1.4-1.9c-1.8-2.4-2.8-5.3-2.6-8.3l0.1-2.4c0.2-3.5-2.2-6.6-5.6-7.3
		l-2.3-0.5c-2.9-0.7-5.5-2.3-7.4-4.7l-1.4-1.9c-2.1-2.8-5.9-3.6-9-2l-2,1c-2.7,1.4-5.7,1.8-8.7,1.1L471,387c-3.4-0.8-6.8,1-8.2,4.2
		l-1,2.3c-1.2,2.8-3.2,5.1-5.9,6.4l-2,1c-3.1,1.6-4.6,5.2-3.5,8.5l0.7,2.3c0.9,2.9,0.8,6-0.4,8.7l-0.9,2.2c-1.3,3.2-0.2,6.9,2.8,8.8
		l2,1.3c2.5,1.6,4.4,4.1,5.3,6.9l0.7,2.3c1,3.3,4.3,5.4,7.8,5l2.4-0.3C471.1,446.4,471.6,446.4,472.1,446.4z"/>
	
		<linearGradient id="SVGID_15_" gradientUnits="userSpaceOnUse" x1="397.2681" y1="283.8" x2="422.8681" y2="283.8" gradientTransform="matrix(1 0 0 -1 0 792)">
		<stop  offset="0" style="stop-color:#FF8A00"/>
		<stop  offset="0.3114" style="stop-color:#F3661F"/>
		<stop  offset="1" style="stop-color:#DA1B60"/>
	</linearGradient>
	<path class="st17" d="M410.1,521c-7.1,0-12.8-5.7-12.8-12.8c0-7.1,5.7-12.8,12.8-12.8s12.8,5.7,12.8,12.8l0,0
		C422.9,515.3,417.1,521,410.1,521z M410.1,501c-4,0-7.2,3.2-7.2,7.2c0,4,3.2,7.2,7.2,7.2s7.2-3.2,7.2-7.2l0,0
		C417.3,504.2,414,501,410.1,501L410.1,501z"/>
	
		<linearGradient id="SVGID_16_" gradientUnits="userSpaceOnUse" x1="373.6498" y1="315.9" x2="383.173" y2="315.9" gradientTransform="matrix(1 0 0 -1 0 792)">
		<stop  offset="0" style="stop-color:#FF8A00"/>
		<stop  offset="0.3114" style="stop-color:#F3661F"/>
		<stop  offset="1" style="stop-color:#DA1B60"/>
	</linearGradient>
	<circle class="st18" cx="378.4" cy="476.1" r="4.8"/>
	<circle class="st19" cx="432.6" cy="369.7" r="5.5"/>
	
		<linearGradient id="SVGID_17_" gradientUnits="userSpaceOnUse" x1="539" y1="398.3" x2="550" y2="398.3" gradientTransform="matrix(1 0 0 -1 0 792)">
		<stop  offset="0" style="stop-color:#FF8A00"/>
		<stop  offset="0.3114" style="stop-color:#F3661F"/>
		<stop  offset="1" style="stop-color:#DA1B60"/>
	</linearGradient>
	<circle class="st20" cx="544.5" cy="393.7" r="5.5"/>
	<linearGradient id="SVGID_18_" gradientUnits="userSpaceOnUse" x1="453.5605" y1="489.1744" x2="468.6179" y2="489.1744">
		<stop  offset="0" style="stop-color:#FF8A00"/>
		<stop  offset="0.3114" style="stop-color:#F3661F"/>
		<stop  offset="1" style="stop-color:#DA1B60"/>
	</linearGradient>
	<polygon class="st21" points="453.6,501.1 465.3,475.7 468.6,477.2 456.9,502.7 	"/>
	<linearGradient id="SVGID_19_" gradientUnits="userSpaceOnUse" x1="446.8554" y1="511.0511" x2="455.2297" y2="511.0511">
		<stop  offset="0" style="stop-color:#FF8A00"/>
		<stop  offset="0.3114" style="stop-color:#F3661F"/>
		<stop  offset="1" style="stop-color:#DA1B60"/>
	</linearGradient>
	<polygon class="st22" points="446.9,515.7 451.9,504.8 455.2,506.4 450.2,517.3 	"/>
	
		<rect x="355.4" y="457.5" transform="matrix(0.418 -0.9084 0.9084 0.418 -209.1471 591.645)" class="st10" width="3.5" height="3.2"/>
	<circle class="st10" cx="556.4" cy="521.5" r="49"/>
	<circle class="st23" cx="558.1" cy="521.5" r="39.7"/>
	
		<linearGradient id="SVGID_20_" gradientUnits="userSpaceOnUse" x1="513.8" y1="270.5999" x2="598.9066" y2="270.5999" gradientTransform="matrix(1 0 0 -1 0 792)">
		<stop  offset="0" style="stop-color:#FF8A00"/>
		<stop  offset="0.3114" style="stop-color:#F3661F"/>
		<stop  offset="1" style="stop-color:#DA1B60"/>
	</linearGradient>
	<path class="st24" d="M556.4,564c-23.5,0-42.6-19.1-42.6-42.6c0-23.5,19.1-42.6,42.6-42.6s42.6,19.1,42.6,42.6l0,0
		C598.9,545,579.9,564,556.4,564z M556.4,484.5c-20.4,0-36.9,16.5-36.9,36.9c0,20.4,16.5,36.9,36.9,36.9s36.9-16.5,36.9-36.9l0,0
		C593.3,501.1,576.8,484.6,556.4,484.5L556.4,484.5z"/>
	<path class="st10" d="M555.4,536.3c-0.6,0-1.3-0.2-1.8-0.6l-12.4-8.7c-1.1-0.8-1.4-2.3-0.6-3.4c0.8-1.1,2.3-1.4,3.4-0.6l11,7.7
		l18-24c0.8-1.1,2.3-1.3,3.4-0.5c1.1,0.8,1.3,2.3,0.5,3.4l-19,25.4C557.4,535.8,556.4,536.3,555.4,536.3z"/>
</g>
<g id="Icon_Test">
	<linearGradient id="SVGID_21_" gradientUnits="userSpaceOnUse" x1="307.5073" y1="164.6552" x2="403.4536" y2="164.6552">
		<stop  offset="0" style="stop-color:#FF8A00"/>
		<stop  offset="0.3114" style="stop-color:#F3661F"/>
		<stop  offset="1" style="stop-color:#DA1B60"/>
	</linearGradient>
	<path class="st25" d="M320.8,234.6h-7.5c-3.2,0-5.8-2.6-5.8-5.8V100.5c0-3.2,2.6-5.8,5.8-5.8h68.5c1.6,0,3.2,0.7,4.3,2l17.4,20.8
		l-8.2,7.4l-16.1-18.7h-60.4v117.2h2V234.6z"/>
	<linearGradient id="SVGID_22_" gradientUnits="userSpaceOnUse" x1="327.2183" y1="185.5298" x2="432.2664" y2="185.5298">
		<stop  offset="0" style="stop-color:#FF8A00"/>
		<stop  offset="0.3114" style="stop-color:#F3661F"/>
		<stop  offset="1" style="stop-color:#DA1B60"/>
	</linearGradient>
	<path class="st26" d="M426.7,255.4H333c-3.2,0-5.8-2.6-5.8-5.8V121.4c0-3.2,2.6-5.8,5.8-5.8h72.3c1.5,0,2.9,0.6,3.9,1.6l21.4,21.6
		c1,1.1,1.6,2.5,1.6,3.9v107.2C432.1,252.9,429.7,255.3,426.7,255.4z M338.6,244.7h82.6V145L403,126.9h-64.4V244.7z"/>
	<linearGradient id="SVGID_23_" gradientUnits="userSpaceOnUse" x1="393.714" y1="137.5816" x2="426.701" y2="137.5816">
		<stop  offset="0" style="stop-color:#FF8A00"/>
		<stop  offset="0.3114" style="stop-color:#F3661F"/>
		<stop  offset="1" style="stop-color:#DA1B60"/>
	</linearGradient>
	<path class="st27" d="M426.7,154h-27.2c-3.2,0-5.8-2.6-5.8-5.8v-27.1h11.1v21.5h21.6L426.7,154z"/>
	<linearGradient id="SVGID_24_" gradientUnits="userSpaceOnUse" x1="351.5346" y1="193.8924" x2="375.1624" y2="193.8924">
		<stop  offset="0" style="stop-color:#FF8A00"/>
		<stop  offset="0.3114" style="stop-color:#F3661F"/>
		<stop  offset="1" style="stop-color:#DA1B60"/>
	</linearGradient>
	<path class="st28" d="M374.9,225.3h-3.7c-2.9,0.1-5.6-1.2-7.4-3.3c-2.3-3.4-3.1-7.5-2.4-11.5c-0.3-10.3-6.1-11.9-6.1-11.9
		c-3-1.1-4.5-4.5-3.4-7.4c0.6-1.5,1.8-2.8,3.4-3.3c0.5,0,5.8-2.1,5.8-12.3c0-6.1,2.8-12.8,9.6-13h3.8v11.1h-1.9
		c-0.1,0.6-0.1,1.3,0,1.9c0.4,6.4-1.7,12.8-5.8,17.8c4.1,5,6.2,11.3,5.8,17.7c0.1,0.3,0.1,0.7,0,1c-0.1,0.8-0.1,1.7,0,2.5h2.5
		L374.9,225.3z"/>
	<linearGradient id="SVGID_25_" gradientUnits="userSpaceOnUse" x1="390.1196" y1="193.9195" x2="413.374" y2="193.9195">
		<stop  offset="0" style="stop-color:#FF8A00"/>
		<stop  offset="0.3114" style="stop-color:#F3661F"/>
		<stop  offset="1" style="stop-color:#DA1B60"/>
	</linearGradient>
	<path class="st29" d="M390.5,225.3v-11.1h2.1c0.1-0.6,0.1-1.2,0-1.8c-0.4-6.4,1.7-12.8,5.8-17.8c-4.1-5-6.2-11.3-5.8-17.7
		c0-0.3,0-0.7,0-1c0.1-0.8,0.1-1.6,0-2.4h-2.5v-11.1h3.7c2.9,0,5.6,1.2,7.4,3.3c2.3,3.4,3.1,7.5,2.4,11.5c0,9.8,5.8,11.5,5.8,11.9
		c2.5,0.8,4.1,3.2,4,5.8c0,2.5-1.7,4.7-4.1,5.2c-0.5,0-5.8,2.1-5.8,12.3c0,6.1-2.8,12.8-9.6,13L390.5,225.3z"/>
	<linearGradient id="SVGID_26_" gradientUnits="userSpaceOnUse" x1="179.7336" y1="55.5249" x2="371.1623" y2="55.5249">
		<stop  offset="0" style="stop-color:#FF8A00"/>
		<stop  offset="0.3114" style="stop-color:#F3661F"/>
		<stop  offset="1" style="stop-color:#DA1B60"/>
	</linearGradient>
	<path class="st30" d="M275.4,95.9c-46.4,0-95.7-14.2-95.7-40.4s49.3-40.4,95.7-40.4s95.7,14.2,95.7,40.4S321.8,95.9,275.4,95.9z
		 M275.4,26c-49.9,0-84.6,15.5-84.6,29.4s34.8,29.4,84.6,29.4S360,69.3,360,55.4S325.2,26,275.4,26z"/>
	<linearGradient id="SVGID_27_" gradientUnits="userSpaceOnUse" x1="359.9734" y1="72.8819" x2="371.1043" y2="72.8819">
		<stop  offset="0" style="stop-color:#FF8A00"/>
		<stop  offset="0.3114" style="stop-color:#F3661F"/>
		<stop  offset="1" style="stop-color:#DA1B60"/>
	</linearGradient>
	<rect x="360" y="55.4" class="st31" width="11.1" height="34.9"/>
	<linearGradient id="SVGID_28_" gradientUnits="userSpaceOnUse" x1="179.7336" y1="175.525" x2="371.1623" y2="175.525">
		<stop  offset="0" style="stop-color:#FF8A00"/>
		<stop  offset="0.3114" style="stop-color:#F3661F"/>
		<stop  offset="1" style="stop-color:#DA1B60"/>
	</linearGradient>
	<path class="st32" d="M275.4,295.6c-46.4,0-95.7-14.2-95.7-40.4V55.4h11.1v199.8c0,13.9,34.8,29.4,84.6,29.4s84.5-15.5,84.5-29.4
		h11.2C371.2,281.5,321.8,295.6,275.4,295.6z"/>
	<linearGradient id="SVGID_29_" gradientUnits="userSpaceOnUse" x1="180.1394" y1="145.5407" x2="301.8839" y2="145.5407">
		<stop  offset="0" style="stop-color:#FF8A00"/>
		<stop  offset="0.3114" style="stop-color:#F3661F"/>
		<stop  offset="1" style="stop-color:#DA1B60"/>
	</linearGradient>
	<path class="st33" d="M275.6,165.7c-54.4,0-95.5-17.3-95.5-40.4h11.2c0,13.9,34.8,29.4,84.3,29.4c8.3,0,16.7-0.5,25-1.4l1.3,11
		C293.2,165.3,284.4,165.8,275.6,165.7z"/>
	<linearGradient id="SVGID_30_" gradientUnits="userSpaceOnUse" x1="180.1394" y1="214.1634" x2="301.8259" y2="214.1634">
		<stop  offset="0" style="stop-color:#FF8A00"/>
		<stop  offset="0.3114" style="stop-color:#F3661F"/>
		<stop  offset="1" style="stop-color:#DA1B60"/>
	</linearGradient>
	<path class="st34" d="M275.6,234.3c-54.4,0-95.5-17.3-95.5-40.4h11.2c0,13.9,34.8,29.4,84.3,29.4c8.3,0,16.7-0.5,25-1.4l1.2,11.1
		C293.1,234,284.4,234.4,275.6,234.3z"/>
</g>
</svg>
