<?xml version="1.0" encoding="utf-8"?>
<!-- Generator: Adobe Illustrator 22.1.0, SVG Export Plug-In . SVG Version: 6.00 Build 0)  -->
<svg version="1.1" id="Capa_1" xmlns="http://www.w3.org/2000/svg" xmlns:xlink="http://www.w3.org/1999/xlink" x="0px" y="0px"
	 viewBox="0 0 612 792" style="enable-background:new 0 0 612 792;" xml:space="preserve">
<style type="text/css">
	.st0{fill:url(#SVGID_1_);}
	.st1{fill:url(#SVGID_2_);}
	.st2{fill:url(#SVGID_3_);}
	.st3{fill:url(#SVGID_4_);}
	.st4{fill:url(#SVGID_5_);}
	.st5{fill:url(#SVGID_6_);}
	.st6{fill:url(#SVGID_7_);}
	.st7{fill:url(#SVGID_8_);}
	.st8{fill:url(#SVGID_9_);}
	.st9{fill:url(#SVGID_10_);}
	.st10{fill:url(#SVGID_11_);}
	.st11{fill:url(#SVGID_12_);}
	.st12{fill:url(#SVGID_13_);}
	.st13{fill:url(#SVGID_14_);}
	.st14{fill:url(#SVGID_15_);}
	.st15{fill:url(#SVGID_16_);}
	.st16{fill:url(#SVGID_17_);}
	.st17{fill:url(#SVGID_18_);}
	.st18{fill:url(#SVGID_19_);}
	.st19{fill:url(#SVGID_20_);}
	.st20{fill:none;stroke:url(#SVGID_21_);stroke-width:5;stroke-miterlimit:10;}
	.st21{fill:none;stroke:url(#SVGID_22_);stroke-width:5;stroke-miterlimit:10;}
	.st22{fill:none;stroke:#FFFFFF;stroke-width:4;stroke-miterlimit:10;}
	.st23{fill:none;stroke:#FFFFFF;stroke-width:5;stroke-miterlimit:10;}
	.st24{fill:none;stroke:url(#SVGID_23_);stroke-width:5;stroke-miterlimit:10;}
	.st25{fill:none;stroke:url(#SVGID_24_);stroke-width:5;stroke-miterlimit:10;}
	.st26{fill:none;stroke:url(#SVGID_25_);stroke-width:5;stroke-miterlimit:10;}
	.st27{fill:none;stroke:url(#SVGID_26_);stroke-width:5;stroke-miterlimit:10;}
	.st28{fill:none;stroke:#FFFFFF;stroke-width:6;stroke-miterlimit:10;}
</style>
<text transform="matrix(1 0 0 1 -2731.3723 -3142.8291)" style="font-family:'ArialMT'; font-size:12px;">    max-width: 600px;</text>
<text transform="matrix(1 0 0 1 -2731.3723 -3128.4292)" style="font-family:'ArialMT'; font-size:12px;">    margin: 0 auto;</text>
<g>
	<g id="Icon_Test_1_">
		
			<linearGradient id="SVGID_1_" gradientUnits="userSpaceOnUse" x1="312.7119" y1="396.1443" x2="454.0119" y2="396.1443" gradientTransform="matrix(1 0 0 -1 0 792.6)">
			<stop  offset="0" style="stop-color:#FF8A00"/>
			<stop  offset="0.3114" style="stop-color:#F3661F"/>
			<stop  offset="1" style="stop-color:#DA1B60"/>
		</linearGradient>
		<path class="st0" d="M426.5,563.5l-12.7-6.5c6.8-12.8,12.2-26.3,16.2-40.2l13.7,4C439.4,535.5,433.7,549.8,426.5,563.5z
			 M439.8,433.6c-2.5-39.7-15.4-78.1-37.6-111.3l11.9-7.7c23.5,35.2,37.3,75.9,39.9,118.1L439.8,433.6z M345.7,262.3
			c-10.4-7.7-21.4-14.4-33-20.2l6.5-12.6c12.3,6,24.1,13.2,35.1,21.3L345.7,262.3z"/>
		
			<linearGradient id="SVGID_2_" gradientUnits="userSpaceOnUse" x1="324.4119" y1="372.6443" x2="413.7119" y2="372.6443" gradientTransform="matrix(1 0 0 -1 0 792.6)">
			<stop  offset="0" style="stop-color:#FF8A00"/>
			<stop  offset="0.3114" style="stop-color:#F3661F"/>
			<stop  offset="1" style="stop-color:#DA1B60"/>
		</linearGradient>
		<path class="st1" d="M404.1,451.6c-22.5-22.2-49.7-39.2-79.7-49.7l4.4-13.5c31.9,11.1,60.9,29.2,84.9,52.9L404.1,451.6z"/>
		
			<linearGradient id="SVGID_3_" gradientUnits="userSpaceOnUse" x1="453.9655" y1="269.5943" x2="476.2212" y2="269.5943" gradientTransform="matrix(1 0 0 -1 0 792.6)">
			<stop  offset="0" style="stop-color:#FF8A00"/>
			<stop  offset="0.3114" style="stop-color:#F3661F"/>
			<stop  offset="1" style="stop-color:#DA1B60"/>
		</linearGradient>
		<path class="st2" d="M462.9,536.3c-2.6-7.1-5.6-13.6-8.9-20.2l12.8-6.3c3.5,6.9,6.7,14,9.5,21.3L462.9,536.3z"/>
		
			<linearGradient id="SVGID_4_" gradientUnits="userSpaceOnUse" x1="417.8713" y1="245.0943" x2="473.9713" y2="245.0943" gradientTransform="matrix(1 0 0 -1 0 792.6)">
			<stop  offset="0" style="stop-color:#FF8A00"/>
			<stop  offset="0.3114" style="stop-color:#F3661F"/>
			<stop  offset="1" style="stop-color:#DA1B60"/>
		</linearGradient>
		<path class="st3" d="M422.4,566.9l-4.6-13.4c17.1-5.7,33.1-14.3,47.3-25.3l8.8,11.2C458.4,551.3,441,560.7,422.4,566.9z"/>
		
			<linearGradient id="SVGID_5_" gradientUnits="userSpaceOnUse" x1="192.4119" y1="407.1943" x2="241.0606" y2="407.1943" gradientTransform="matrix(1 0 0 -1 0 792.6)">
			<stop  offset="0" style="stop-color:#FF8A00"/>
			<stop  offset="0.3114" style="stop-color:#F3661F"/>
			<stop  offset="1" style="stop-color:#DA1B60"/>
		</linearGradient>
		<path class="st4" d="M195.7,395.5l-3.3-13.8c15.8-3.9,32-6,48.3-6.3l0.4,14.2C225.7,389.9,210.5,391.9,195.7,395.5z"/>
		
			<linearGradient id="SVGID_6_" gradientUnits="userSpaceOnUse" x1="300.6722" y1="468.7943" x2="348.3722" y2="468.7943" gradientTransform="matrix(1 0 0 -1 0 792.6)">
			<stop  offset="0" style="stop-color:#FF8A00"/>
			<stop  offset="0.3114" style="stop-color:#F3661F"/>
			<stop  offset="1" style="stop-color:#DA1B60"/>
		</linearGradient>
		<path class="st5" d="M312.6,350.4l-12-7.7c10.5-16.9,23.4-32.2,38.3-45.4l9.4,10.7C334.4,320.3,322.4,334.6,312.6,350.4z"/>
		
			<linearGradient id="SVGID_7_" gradientUnits="userSpaceOnUse" x1="413.8767" y1="537.7943" x2="449.5429" y2="537.7943" gradientTransform="matrix(1 0 0 -1 0 792.6)">
			<stop  offset="0" style="stop-color:#FF8A00"/>
			<stop  offset="0.3114" style="stop-color:#F3661F"/>
			<stop  offset="1" style="stop-color:#DA1B60"/>
		</linearGradient>
		<path class="st6" d="M418.7,266.2l-4.9-13.3c10.7-4,21.8-7.1,33-9.4l2.6,14.2C439,259.7,428.7,262.6,418.7,266.2z"/>
		
			<linearGradient id="SVGID_8_" gradientUnits="userSpaceOnUse" x1="259.1568" y1="304.1943" x2="290.6857" y2="304.1943" gradientTransform="matrix(1 0 0 -1 0 792.6)">
			<stop  offset="0" style="stop-color:#FF8A00"/>
			<stop  offset="0.3114" style="stop-color:#F3661F"/>
			<stop  offset="1" style="stop-color:#DA1B60"/>
		</linearGradient>
		<path class="st7" d="M277.5,551.6c-11.7-26.9-17.9-55.8-18.3-85.1c0.2-11.3,1.7-22.5,4.4-33.5c0.5-2.5,1.1-5,1.6-7.7l14.3,2.8
			c-0.5,2.7-1.1,5.3-1.6,7.8c-2.5,10-3.9,20.3-4.1,30.6c0.3,27.5,6.1,54.7,17,80L277.5,551.6z"/>
		
			<linearGradient id="SVGID_9_" gradientUnits="userSpaceOnUse" x1="186.6119" y1="393.5254" x2="543.2469" y2="393.5254" gradientTransform="matrix(1 0 0 -1 0 792.6)">
			<stop  offset="0" style="stop-color:#FF8A00"/>
			<stop  offset="0.3114" style="stop-color:#F3661F"/>
			<stop  offset="1" style="stop-color:#DA1B60"/>
		</linearGradient>
		<path class="st8" d="M364.9,576.5c-98.5,0-178.3-79.4-178.3-177.4c0-3.6,0-7.1,0.4-10.7c4.5-74.4,55.3-138,127-159.3
			c46.2-13.7,96-8.1,138.1,15.3c85.9,47.9,116.5,156,68.3,241.5c-11.7,20.8-27.5,39-46.4,53.5C442.6,563.3,404.3,576.3,364.9,576.5z
			 M364.9,235.9c-15.9,0.1-31.7,2.4-46.9,7.1c-66,19.6-112.6,78-116.8,146.4c0,3.3-0.4,6.5-0.4,9.7c0,90.1,73.5,163.2,164.1,163.2
			c18,0,35.9-2.9,52.9-8.8c17.1-5.7,33.1-14.3,47.4-25.3c71.7-55.2,84.8-157.7,29.3-228.9C463.5,259.3,415.6,235.9,364.9,235.9z"/>
		
			<linearGradient id="SVGID_10_" gradientUnits="userSpaceOnUse" x1="350.6119" y1="507.0443" x2="413.8119" y2="507.0443" gradientTransform="matrix(1 0 0 -1 0 792.6)">
			<stop  offset="0" style="stop-color:#FF8A00"/>
			<stop  offset="0.3114" style="stop-color:#F3661F"/>
			<stop  offset="1" style="stop-color:#DA1B60"/>
		</linearGradient>
		<path class="st9" d="M382.2,317c-17.5,0-31.6-14.1-31.6-31.4c0-17.4,14.1-31.4,31.6-31.4s31.6,14.1,31.6,31.4c0,0,0,0,0,0.1
			C413.8,302.9,399.7,317,382.2,317L382.2,317z M382.2,268.4c-9.6,0-17.3,7.7-17.3,17.2s7.8,17.2,17.3,17.2s17.3-7.7,17.3-17.2
			S391.8,268.4,382.2,268.4L382.2,268.4z"/>
		
			<linearGradient id="SVGID_11_" gradientUnits="userSpaceOnUse" x1="253.3119" y1="408.0443" x2="316.5119" y2="408.0443" gradientTransform="matrix(1 0 0 -1 0 792.6)">
			<stop  offset="0" style="stop-color:#FF8A00"/>
			<stop  offset="0.3114" style="stop-color:#F3661F"/>
			<stop  offset="1" style="stop-color:#DA1B60"/>
		</linearGradient>
		<path class="st10" d="M284.9,416c-17.5,0-31.6-14.1-31.6-31.4c0-17.4,14.1-31.4,31.6-31.4s31.6,14.1,31.6,31.4
			C316.5,401.9,302.3,415.9,284.9,416z M284.9,367.3c-9.6,0-17.3,7.7-17.3,17.2s7.8,17.2,17.3,17.2c9.6,0,17.3-7.7,17.3-17.2
			c0.1-9.5-7.6-17.3-17.2-17.4h-0.1V367.3z"/>
		
			<linearGradient id="SVGID_12_" gradientUnits="userSpaceOnUse" x1="410.1119" y1="317.1943" x2="473.3119" y2="317.1943" gradientTransform="matrix(1 0 0 -1 0 792.6)">
			<stop  offset="0" style="stop-color:#FF8A00"/>
			<stop  offset="0.3114" style="stop-color:#F3661F"/>
			<stop  offset="1" style="stop-color:#DA1B60"/>
		</linearGradient>
		<path class="st11" d="M441.8,506.9c-17.5,0-31.6-14-31.7-31.4c0-17.4,14.1-31.5,31.5-31.5c17.5,0,31.6,14,31.7,31.4v0.1
			C473.3,492.9,459.2,506.9,441.8,506.9L441.8,506.9z M441.8,458.3c-9.6,0-17.4,7.6-17.4,17.2c0,9.5,7.7,17.3,17.3,17.3
			s17.4-7.6,17.4-17.2c0,0,0,0,0-0.1C459,466.1,451.3,458.4,441.8,458.3z"/>
	</g>
	<g>
		
			<linearGradient id="SVGID_13_" gradientUnits="userSpaceOnUse" x1="30.5776" y1="-16411.2461" x2="35.1557" y2="-16411.2461" gradientTransform="matrix(1 0 0 -1 0 -15883.4004)">
			<stop  offset="0" style="stop-color:#FF8A00"/>
			<stop  offset="0.3114" style="stop-color:#F3661F"/>
			<stop  offset="1" style="stop-color:#DA1B60"/>
		</linearGradient>
		<circle class="st12" cx="32.9" cy="527.8" r="2.3"/>
		
			<linearGradient id="SVGID_14_" gradientUnits="userSpaceOnUse" x1="30.5776" y1="-16382.5498" x2="35.1557" y2="-16382.5498" gradientTransform="matrix(1 0 0 -1 0 -15883.4004)">
			<stop  offset="0" style="stop-color:#FF8A00"/>
			<stop  offset="0.3114" style="stop-color:#F3661F"/>
			<stop  offset="1" style="stop-color:#DA1B60"/>
		</linearGradient>
		<circle class="st13" cx="32.9" cy="499.1" r="2.3"/>
		
			<linearGradient id="SVGID_15_" gradientUnits="userSpaceOnUse" x1="29.7472" y1="-16357.4336" x2="34.3253" y2="-16357.4336" gradientTransform="matrix(1 0 0 -1 0 -15883.4004)">
			<stop  offset="0" style="stop-color:#FF8A00"/>
			<stop  offset="0.3114" style="stop-color:#F3661F"/>
			<stop  offset="1" style="stop-color:#DA1B60"/>
		</linearGradient>
		<circle class="st14" cx="32.1" cy="474" r="2.3"/>
		
			<linearGradient id="SVGID_16_" gradientUnits="userSpaceOnUse" x1="29.7472" y1="-16328.7373" x2="34.3253" y2="-16328.7373" gradientTransform="matrix(1 0 0 -1 0 -15883.4004)">
			<stop  offset="0" style="stop-color:#FF8A00"/>
			<stop  offset="0.3114" style="stop-color:#F3661F"/>
			<stop  offset="1" style="stop-color:#DA1B60"/>
		</linearGradient>
		<circle class="st15" cx="32.1" cy="445.3" r="2.3"/>
		
			<linearGradient id="SVGID_17_" gradientUnits="userSpaceOnUse" x1="29.7472" y1="-16303.3555" x2="34.3253" y2="-16303.3555" gradientTransform="matrix(1 0 0 -1 0 -15883.4004)">
			<stop  offset="0" style="stop-color:#FF8A00"/>
			<stop  offset="0.3114" style="stop-color:#F3661F"/>
			<stop  offset="1" style="stop-color:#DA1B60"/>
		</linearGradient>
		<circle class="st16" cx="32.1" cy="420" r="2.3"/>
		
			<linearGradient id="SVGID_18_" gradientUnits="userSpaceOnUse" x1="29.7472" y1="-16275.3887" x2="34.3253" y2="-16275.3887" gradientTransform="matrix(1 0 0 -1 0 -15883.4004)">
			<stop  offset="0" style="stop-color:#FF8A00"/>
			<stop  offset="0.3114" style="stop-color:#F3661F"/>
			<stop  offset="1" style="stop-color:#DA1B60"/>
		</linearGradient>
		<circle class="st17" cx="32.1" cy="392" r="2.3"/>
	</g>
	
		<linearGradient id="SVGID_19_" gradientUnits="userSpaceOnUse" x1="575.5594" y1="-16026.1084" x2="580.1375" y2="-16026.1084" gradientTransform="matrix(1 0 0 -1 0 -15883.4004)">
		<stop  offset="0" style="stop-color:#FF8A00"/>
		<stop  offset="0.3114" style="stop-color:#F3661F"/>
		<stop  offset="1" style="stop-color:#DA1B60"/>
	</linearGradient>
	<circle class="st18" cx="577.9" cy="142.7" r="2.3"/>
	
		<linearGradient id="SVGID_20_" gradientUnits="userSpaceOnUse" x1="575.5594" y1="-15998.208" x2="580.1375" y2="-15998.208" gradientTransform="matrix(1 0 0 -1 0 -15883.4004)">
		<stop  offset="0" style="stop-color:#FF8A00"/>
		<stop  offset="0.3114" style="stop-color:#F3661F"/>
		<stop  offset="1" style="stop-color:#DA1B60"/>
	</linearGradient>
	<circle class="st19" cx="577.9" cy="114.8" r="2.3"/>
	<g>
		
			<linearGradient id="SVGID_21_" gradientUnits="userSpaceOnUse" x1="417.984" y1="118.3788" x2="542.2065" y2="118.3788" gradientTransform="matrix(1 0 0 -1 0 792.6)">
			<stop  offset="0" style="stop-color:#FF8A00"/>
			<stop  offset="0.3114" style="stop-color:#F3661F"/>
			<stop  offset="1" style="stop-color:#DA1B60"/>
		</linearGradient>
		<polygon class="st20" points="420.5,638.6 480.3,605.8 539.7,638.6 539.7,708.3 480.3,742.6 420.5,708.3 		"/>
		
			<linearGradient id="SVGID_22_" gradientUnits="userSpaceOnUse" x1="419.2592" y1="136.6674" x2="540.9553" y2="136.6674" gradientTransform="matrix(1 0 0 -1 0 792.6)">
			<stop  offset="0" style="stop-color:#FF8A00"/>
			<stop  offset="0.3114" style="stop-color:#F3661F"/>
			<stop  offset="1" style="stop-color:#DA1B60"/>
		</linearGradient>
		<polyline class="st21" points="420.5,638.6 480.9,672.5 539.7,638.6 		"/>
	</g>
	<g>
		<polygon class="st22" points="556.1,52.3 578.1,40.3 599.9,52.3 599.9,78 578.1,90.5 556.1,78 		"/>
		<polyline class="st22" points="556.1,52.3 578.3,64.8 599.9,52.3 		"/>
	</g>
	<g>
		<polyline class="st23" points="530.8,120.6 544.9,128 544.9,197.8 485.6,232 425.7,199.3 425.7,128 438.4,121 		"/>
		<polyline class="st23" points="425.7,128 486.1,162.5 544.9,128 		"/>
		<g>
			
				<linearGradient id="SVGID_23_" gradientUnits="userSpaceOnUse" x1="422.8219" y1="714.1597" x2="547.0443" y2="714.1597" gradientTransform="matrix(1 0 0 -1 0 792.6)">
				<stop  offset="0" style="stop-color:#FF8A00"/>
				<stop  offset="0.3114" style="stop-color:#F3661F"/>
				<stop  offset="1" style="stop-color:#DA1B60"/>
			</linearGradient>
			<polygon class="st24" points="425.3,42.8 485.2,10 544.5,42.8 544.5,112.6 485.2,146.8 425.3,112.6 			"/>
			
				<linearGradient id="SVGID_24_" gradientUnits="userSpaceOnUse" x1="424.098" y1="732.4486" x2="545.7941" y2="732.4486" gradientTransform="matrix(1 0 0 -1 0 792.6)">
				<stop  offset="0" style="stop-color:#FF8A00"/>
				<stop  offset="0.3114" style="stop-color:#F3661F"/>
				<stop  offset="1" style="stop-color:#DA1B60"/>
			</linearGradient>
			<polyline class="st25" points="425.3,42.8 485.8,76.8 544.5,42.8 			"/>
		</g>
	</g>
	<g>
		
			<linearGradient id="SVGID_25_" gradientUnits="userSpaceOnUse" x1="9.5527" y1="455.965" x2="55.5085" y2="455.965" gradientTransform="matrix(1 0 0 -1 0 792.6)">
			<stop  offset="0" style="stop-color:#FF8A00"/>
			<stop  offset="0.3114" style="stop-color:#F3661F"/>
			<stop  offset="1" style="stop-color:#DA1B60"/>
		</linearGradient>
		<polygon class="st26" points="12.1,324.4 32.6,313.1 53,324.4 53,348.3 32.6,360.1 12.1,348.3 		"/>
		
			<linearGradient id="SVGID_26_" gradientUnits="userSpaceOnUse" x1="10.8244" y1="462.0262" x2="54.255" y2="462.0262" gradientTransform="matrix(1 0 0 -1 0 792.6)">
			<stop  offset="0" style="stop-color:#FF8A00"/>
			<stop  offset="0.3114" style="stop-color:#F3661F"/>
			<stop  offset="1" style="stop-color:#DA1B60"/>
		</linearGradient>
		<polyline class="st27" points="12.1,324.4 32.7,336.1 53,324.4 		"/>
	</g>
	<g>
		<polygon class="st28" points="69,307.8 120,279.8 170.6,307.8 170.6,367.1 120,396.2 69,367.1 		"/>
		<polyline class="st28" points="69,307.8 120.5,336.6 170.6,307.8 		"/>
	</g>
	<polyline class="st28" points="156.9,375 168.1,381.2 168.1,438.4 119.4,466.5 70.3,438.4 70.3,381.2 82.2,374.6 	"/>
	<polyline class="st28" points="70.3,381.2 119.9,409.1 168.1,381.2 	"/>
	<polyline class="st28" points="156.9,444.3 168.1,450.4 168.1,507.6 119.4,535.7 70.3,507.6 70.3,450.4 82.2,443.9 	"/>
	<polyline class="st28" points="70.3,450.4 119.9,478.3 168.1,450.4 	"/>
	<polyline class="st28" points="156.9,513.5 168.1,519.7 168.1,577 119.4,605.1 70.3,577 70.3,519.7 82.2,513.2 	"/>
	<polyline class="st28" points="309.8,750.2 359.4,778.1 407.6,750.2 	"/>
</g>
</svg>
