<?xml version="1.0" encoding="utf-8"?>
<!-- Generator: Adobe Illustrator 22.1.0, SVG Export Plug-In . SVG Version: 6.00 Build 0)  -->
<svg version="1.1" id="Layer_1" xmlns="http://www.w3.org/2000/svg" xmlns:xlink="http://www.w3.org/1999/xlink" x="0px" y="0px"
	 viewBox="0 0 633.5 429.6" style="enable-background:new 0 0 633.5 429.6;" xml:space="preserve">
<style type="text/css">
	.st0{fill:url(#SVGID_1_);}
	.st1{fill:url(#SVGID_2_);}
	.st2{opacity:0.5;}
	.st3{fill:#FFFFFF;}
	.st4{fill:#DAEEF5;}
	.st5{fill:url(#SVGID_3_);}
	.st6{fill:url(#SVGID_4_);}
	.st7{fill:url(#SVGID_5_);}
	.st8{fill:url(#SVGID_6_);}
	.st9{fill:url(#SVGID_7_);}
	.st10{fill:url(#SVGID_8_);}
	.st11{fill:url(#SVGID_9_);}
	.st12{fill:url(#SVGID_10_);}
	.st13{fill:url(#SVGID_11_);}
	.st14{fill:url(#SVGID_12_);}
	.st15{fill:url(#SVGID_13_);}
	.st16{fill:url(#SVGID_14_);}
	.st17{fill:url(#SVGID_15_);}
	.st18{fill:url(#SVGID_16_);}
	.st19{fill:url(#SVGID_17_);}
	.st20{fill:#161619;}
	.st21{fill:url(#SVGID_18_);}
	.st22{fill:url(#SVGID_19_);}
	.st23{fill:url(#SVGID_20_);}
</style>
<g>
	<g id="Layer_2_1_">
		<g>
			
				<linearGradient id="SVGID_1_" gradientUnits="userSpaceOnUse" x1="102.5984" y1="128.3367" x2="538.6011" y2="128.3367" gradientTransform="matrix(1 0 0 -1 0 432)">
				<stop  offset="0" style="stop-color:#DA1B60"/>
				<stop  offset="1" style="stop-color:#F28705"/>
			</linearGradient>
			<path class="st0" d="M424.1,232.1c-4.1,0-4.2-1.6-3.9-5.7c1-12.5-1.8-17.5,8.9-17.5L201,208.8c-26.2,0.2-52.4,0.1-78.5,0.1
				c-2.6,0-5.4,0-7.9,0.7c-7.5,1.8-12.1,9.2-12,18.6c0.1,9.4,4.8,16.6,12.3,18.3c2.6,0.6,5.3,0.6,7.9,0.6c31.3,0,62.6,0,93.8,0
				c3.3,0,6.7-0.2,9.8,1.5c6.3,3.4,9.8,11.9,8.6,20.9c-1.2,8.9-6.8,15.3-14.6,15.4c-14,0.3-27.9,0.1-41.9,0.2
				c-10.3,0.1-16.9,7.5-16.9,18.8s6.6,18.9,16.9,18.9c15.3,0.1,30.6-0.1,45.9,0c10,0.1,16.9,8.1,16.7,19.3
				c-0.2,11-6.7,18.3-16.6,18.5c-7.5,0.1-15.1-0.3-22.6,0.2s-12.7,6.6-14,15.3c-1.3,8.5,1.9,16.5,8,20.5c3.5,2.3,7.3,1.9,11.1,1.9
				c43.9,0,87.8,0,131.8,0c44.6,0,89.2,0,133.8,0c12.2,0,16.8-5.5,18-21c0.9-11.2,4.9-16.4,13.6-16.9c6-0.3,12,0,18-0.1
				c9.8-0.2,16.3-7.6,16.4-18.5c0.1-11.6-6.3-19.1-16.6-19.2c-9.5-0.1-19.1,0.1-28.6-0.1c-8.5-0.2-12.8-5.4-13.6-15.8
				C478.4,290.2,474,285,461,285c-26.4,0-52.8,0.1-79.2,0c-10.3,0-16.7-7.6-16.8-19.1c0-11.6,6.2-18.6,16.8-18.8
				c8.6-0.2,17.3-0.3,25.9-0.6c2-0.1,2.5,0.3,2.9,2.9L424.1,232.1z"/>
			
				<linearGradient id="SVGID_2_" gradientUnits="userSpaceOnUse" x1="86.5319" y1="876.65" x2="554.5387" y2="876.65" gradientTransform="matrix(1 0 0 1 0 -732)">
				<stop  offset="0" style="stop-color:#DA1B60"/>
				<stop  offset="1" style="stop-color:#F28705"/>
			</linearGradient>
			<path class="st1" d="M544.7,226.3c0,11.4-9.4,20.6-21.1,20.6l0,0H107.5c-11.7-0.7-20.6-10.5-19.9-21.8
				c0.7-10.3,9.2-18.7,19.9-19.3h90c11.7-0.7,20.6-10.5,19.9-21.8c-0.7-10.3-9.2-18.7-19.9-19.3h-96.1c-11.1-3.4-17.4-15-13.9-25.7
				c2.7-8.5,10.8-14.4,20-14.4h192c11.7,0.7,21.7-8,22.4-19.3c0.7-11.4-8.2-21.1-19.9-21.8c-0.9,0-1.7,0-2.6,0H202
				c-11.7-0.7-20.6-10.5-19.9-21.8c0.7-10.3,9.2-18.7,19.9-19.3h238c11.7,0.7,20.6,10.5,19.9,21.8c-0.7,10.3-9.2,18.7-19.9,19.3
				h-53.3c-11.7-0.7-21.7,8-22.4,19.3c-0.7,11.4,8.2,21.1,19.9,21.8c0.9,0,1.7,0,2.6,0h147.8c11.7,0.7,20.6,10.5,19.9,21.8
				c-0.7,10.3-9.2,18.7-19.9,19.3h-5.8c-2-0.6-4-0.9-6.2-0.9H284.7c-11.7,0-21.1,9.2-21.1,20.6S273,206,284.7,206h238.8
				C535.2,205.8,544.5,214.9,544.7,226.3z"/>
		</g>
	</g>
	<g id="Layer_1_1_">
		<g class="st2">
			<ellipse class="st3" cx="226.6" cy="145" rx="1.7" ry="1.6"/>
			<ellipse class="st3" cx="249.1" cy="137.7" rx="1.7" ry="1.6"/>
			<path class="st3" d="M209.5,152.7c-1.1,0-2.1-0.9-2.1-2s0.9-2,2.1-2c1.1,0,2.1,0.9,2.1,2l0,0
				C211.7,151.8,210.8,152.7,209.5,152.7z M209.5,149.6c-0.7,0-1.1,0.4-1.1,1.1c0,0.7,0.6,1.1,1.1,1.1c0.7,0,1.1-0.4,1.1-1.1l0,0
				C210.8,150,210.2,149.6,209.5,149.6L209.5,149.6z"/>
			<path class="st3" d="M207.2,139.7l2.9,2.6c0.7,0.6,1.7-0.3,1-1l-2.9-2.6C207.5,138.1,206.4,139.1,207.2,139.7z"/>
			<path class="st3" d="M209.9,138.6l-2.6,2.8c-0.7,0.7,0.4,1.7,1,1l2.7-2.8C211.6,138.9,210.5,137.9,209.9,138.6z"/>
			<path class="st3" d="M249.1,144.3l-2.7,2.8c-0.7,0.7,0.3,1.7,1,1l2.7-2.8C250.8,144.6,249.8,143.6,249.1,144.3z"/>
			<path class="st3" d="M250.2,147l-2.9-2.6c-0.7-0.6-1.7,0.3-1,1l2.9,2.6C249.9,148.6,250.9,147.7,250.2,147z"/>
			<ellipse class="st3" cx="336.8" cy="145" rx="1.7" ry="1.6"/>
			<ellipse class="st3" cx="359.3" cy="137.7" rx="1.7" ry="1.6"/>
			<path class="st3" d="M319.7,152.7c-1.1,0-2.1-0.9-2.1-2s0.9-2,2.1-2c1.1,0,2.1,0.9,2.1,2S320.9,152.7,319.7,152.7L319.7,152.7z
				 M319.7,149.6c-0.7,0-1.1,0.4-1.1,1.1c0,0.7,0.6,1.1,1.1,1.1c0.7,0,1.1-0.4,1.1-1.1C320.9,150,320.4,149.6,319.7,149.6
				L319.7,149.6z"/>
			<path class="st3" d="M317.3,139.7l2.9,2.6c0.7,0.6,1.7-0.3,1-1l-2.9-2.6C317.7,138.1,316.7,139.1,317.3,139.7z"/>
			<path class="st3" d="M320,138.6l-2.6,2.8c-0.7,0.7,0.4,1.7,1,1l2.7-2.8C321.7,138.9,320.7,137.9,320,138.6z"/>
			<path class="st3" d="M359.4,144.3l-2.7,2.8c-0.7,0.7,0.3,1.7,1,1l2.7-2.8C361,144.6,359.9,143.6,359.4,144.3z"/>
			<path class="st3" d="M360.5,147l-2.9-2.6c-0.7-0.6-1.7,0.3-1,1l2.9,2.6C360.2,148.6,361.2,147.7,360.5,147z"/>
			<ellipse class="st3" cx="508.4" cy="145" rx="1.7" ry="1.6"/>
			<ellipse class="st3" cx="531" cy="137.7" rx="1.7" ry="1.6"/>
			<path class="st3" d="M491.5,152.7c-1.1,0-2.1-0.9-2.1-2s0.9-2,2.1-2c1.1,0,2.1,0.9,2.1,2S492.7,152.7,491.5,152.7L491.5,152.7z
				 M491.5,149.6c-0.7,0-1.1,0.4-1.1,1.1c0,0.7,0.6,1.1,1.1,1.1c0.7,0,1.1-0.4,1.1-1.1S492.1,149.6,491.5,149.6L491.5,149.6z"/>
			<path class="st3" d="M489,139.7l2.9,2.6c0.7,0.6,1.7-0.3,1-1l-2.9-2.6C489.3,138.1,488.3,139.1,489,139.7z"/>
			<path class="st3" d="M491.8,138.6l-2.7,2.8c-0.7,0.7,0.4,1.7,1,1l2.7-2.8C493.5,138.9,492.5,137.9,491.8,138.6z"/>
			<path class="st3" d="M531,144.3l-2.7,2.8c-0.7,0.7,0.3,1.7,1,1l2.7-2.8C532.7,144.6,531.7,143.6,531,144.3z"/>
			<path class="st3" d="M532.2,147l-2.9-2.6c-0.7-0.6-1.7,0.3-1,1l2.9,2.6C531.8,148.6,532.8,147.7,532.2,147z"/>
			<ellipse class="st3" cx="127.4" cy="145" rx="1.7" ry="1.6"/>
			<ellipse class="st3" cx="150" cy="137.7" rx="1.7" ry="1.6"/>
			<path class="st3" d="M110.4,152.7c-1.1,0-2.1-0.9-2.1-2s0.9-2,2.1-2c1.1,0,2.1,0.9,2.1,2l0,0
				C112.5,151.8,111.6,152.7,110.4,152.7z M110.4,149.6c-0.7,0-1.1,0.4-1.1,1.1c0,0.7,0.6,1.1,1.1,1.1c0.7,0,1.1-0.4,1.1-1.1l0,0
				C111.5,150,111.1,149.6,110.4,149.6L110.4,149.6z"/>
			<path class="st3" d="M107.9,139.7l2.9,2.6c0.7,0.6,1.7-0.3,1-1l-2.9-2.6C108.2,138.1,107.2,139.1,107.9,139.7z"/>
			<path class="st3" d="M110.7,138.6l-2.7,2.8c-0.7,0.7,0.4,1.7,1,1l2.7-2.8C112.4,138.9,111.4,137.9,110.7,138.6z"/>
			<path class="st3" d="M150,144.3l-2.7,2.8c-0.7,0.7,0.3,1.7,1,1l2.7-2.8C151.6,144.6,150.6,143.6,150,144.3z"/>
			<path class="st3" d="M151.1,147l-2.9-2.6c-0.7-0.6-1.7,0.3-1,1l2.9,2.6C150.7,148.6,151.8,147.7,151.1,147z"/>
		</g>
		<g class="st2">
			<ellipse class="st3" cx="219.2" cy="63.7" rx="1.7" ry="1.6"/>
			<ellipse class="st3" cx="241.8" cy="56.4" rx="1.7" ry="1.6"/>
			<path class="st3" d="M202.2,71.5c-1.1,0-2.1-0.9-2.1-2s0.9-2,2.1-2c1.1,0,2.1,0.9,2.1,2l0,0C204.4,70.6,203.3,71.5,202.2,71.5z
				 M202.2,68.3c-0.7,0-1.1,0.4-1.1,1.1s0.6,1.1,1.1,1.1c0.7,0,1.1-0.4,1.1-1.1l0,0C203.3,68.8,202.9,68.3,202.2,68.3L202.2,68.3
				L202.2,68.3z"/>
			<path class="st3" d="M199.8,58.4l2.9,2.6c0.7,0.6,1.7-0.3,1-1l-2.9-2.6C200.1,56.9,199.1,57.9,199.8,58.4z"/>
			<path class="st3" d="M202.6,57.3l-2.7,2.8c-0.7,0.7,0.4,1.7,1,1l2.7-2.8C204.2,57.6,203.1,56.6,202.6,57.3z"/>
			<path class="st3" d="M241.8,63l-2.7,2.8c-0.7,0.7,0.3,1.7,1,1l2.7-2.8C243.5,63.4,242.5,62.4,241.8,63z"/>
			<path class="st3" d="M242.9,65.7l-2.9-2.6c-0.7-0.6-1.7,0.3-1,1l2.9,2.6C242.6,67.4,243.6,66.4,242.9,65.7z"/>
			<ellipse class="st3" cx="310.1" cy="63.7" rx="1.7" ry="1.6"/>
			<ellipse class="st3" cx="332.7" cy="56.4" rx="1.7" ry="1.6"/>
			<path class="st3" d="M293.2,71.5c-1.1,0-2.1-0.9-2.1-2s0.9-2,2.1-2c1.1,0,2.1,0.9,2.1,2S294.3,71.5,293.2,71.5L293.2,71.5z
				 M293.2,68.3c-0.7,0-1.1,0.4-1.1,1.1s0.6,1.1,1.1,1.1c0.7,0,1.1-0.4,1.1-1.1S293.8,68.3,293.2,68.3L293.2,68.3L293.2,68.3z"/>
			<path class="st3" d="M290.7,58.4l2.9,2.6c0.7,0.6,1.7-0.3,1-1l-2.9-2.6C291,56.9,290,57.9,290.7,58.4z"/>
			<path class="st3" d="M293.5,57.3l-2.7,2.8c-0.7,0.7,0.4,1.7,1,1l2.7-2.8C295.1,57.6,294.1,56.6,293.5,57.3z"/>
			<path class="st3" d="M332.7,63l-2.7,2.8c-0.7,0.7,0.3,1.7,1,1l2.7-2.8C334.3,63.4,333.3,62.4,332.7,63z"/>
			<path class="st3" d="M333.9,65.7l-2.9-2.6c-0.7-0.6-1.7,0.3-1,1l2.9,2.6C333.5,67.4,334.5,66.4,333.9,65.7z"/>
			<ellipse class="st3" cx="418.5" cy="63.7" rx="1.7" ry="1.6"/>
			<ellipse class="st3" cx="441.1" cy="56.4" rx="1.7" ry="1.6"/>
			<path class="st3" d="M401.5,71.5c-1.1,0-2.1-0.9-2.1-2s0.9-2,2.1-2s2.1,0.9,2.1,2S402.7,71.5,401.5,71.5L401.5,71.5z M401.5,68.3
				c-0.7,0-1.1,0.4-1.1,1.1s0.6,1.1,1.1,1.1c0.7,0,1.1-0.4,1.1-1.1S402.1,68.3,401.5,68.3L401.5,68.3L401.5,68.3z"/>
			<path class="st3" d="M399.1,58.4L402,61c0.7,0.6,1.7-0.3,1-1l-2.9-2.6C399.4,56.9,398.4,57.9,399.1,58.4z"/>
			<path class="st3" d="M401.9,57.3l-2.7,2.8c-0.7,0.7,0.4,1.7,1,1l2.7-2.8C403.4,57.6,402.4,56.6,401.9,57.3z"/>
			<path class="st3" d="M441.1,63l-2.7,2.8c-0.7,0.7,0.3,1.7,1,1l2.7-2.8C442.7,63.4,441.7,62.4,441.1,63z"/>
			<path class="st3" d="M442.2,65.7l-2.9-2.6c-0.7-0.6-1.7,0.3-1,1l2.9,2.6C441.9,67.4,442.9,66.4,442.2,65.7z"/>
		</g>
		<g class="st2">
			<ellipse class="st3" cx="166.9" cy="227.9" rx="1.7" ry="1.6"/>
			<ellipse class="st3" cx="189.4" cy="220.6" rx="1.7" ry="1.6"/>
			<path class="st3" d="M149.8,235.8c-1.1,0-2.1-0.9-2.1-2s0.9-2,2.1-2c1.1,0,2.1,0.9,2.1,2l0,0C152,234.8,151.1,235.8,149.8,235.8z
				 M149.8,232.6c-0.7,0-1.1,0.4-1.1,1.1s0.6,1.1,1.1,1.1c0.6,0,1.1-0.4,1.1-1.1l0,0C151.1,233.1,150.5,232.6,149.8,232.6
				L149.8,232.6L149.8,232.6z"/>
			<path class="st3" d="M147.5,222.8l2.9,2.6c0.7,0.6,1.7-0.3,1-1l-2.9-2.6C147.8,221.2,146.8,222.1,147.5,222.8z"/>
			<path class="st3" d="M150.2,221.6l-2.7,2.8c-0.7,0.7,0.4,1.7,1,1l2.7-2.8C151.9,222,150.9,221,150.2,221.6z"/>
			<path class="st3" d="M189.4,227.4l-2.7,2.8c-0.7,0.7,0.3,1.7,1,1l2.7-2.8C191.1,227.7,190.1,226.7,189.4,227.4z"/>
			<path class="st3" d="M190.5,230.1l-2.9-2.6c-0.7-0.6-1.7,0.3-1,1l2.9,2.6C190.2,231.7,191.2,230.6,190.5,230.1z"/>
			<ellipse class="st3" cx="310.1" cy="227.9" rx="1.7" ry="1.6"/>
			<ellipse class="st3" cx="332.7" cy="220.6" rx="1.7" ry="1.6"/>
			<path class="st3" d="M293.2,235.8c-1.1,0-2.1-0.9-2.1-2s0.9-2,2.1-2c1.1,0,2.1,0.9,2.1,2S294.3,235.8,293.2,235.8L293.2,235.8z
				 M293.2,232.6c-0.7,0-1.1,0.4-1.1,1.1s0.6,1.1,1.1,1.1c0.7,0,1.1-0.4,1.1-1.1S293.7,232.6,293.2,232.6L293.2,232.6L293.2,232.6z"
				/>
			<path class="st3" d="M290.7,222.8l2.9,2.6c0.7,0.6,1.7-0.3,1-1l-2.9-2.6C291,221.2,290,222.1,290.7,222.8z"/>
			<path class="st3" d="M293.5,221.6l-2.7,2.8c-0.7,0.7,0.4,1.7,1,1l2.7-2.8C295.1,222,294.1,221,293.5,221.6z"/>
			<path class="st3" d="M332.7,227.4l-2.7,2.8c-0.7,0.7,0.3,1.7,1,1l2.7-2.8C334.3,227.7,333.3,226.7,332.7,227.4z"/>
			<path class="st3" d="M333.9,230.1l-2.9-2.6c-0.7-0.6-1.7,0.3-1,1l2.9,2.6C333.5,231.7,334.5,230.6,333.9,230.1z"/>
			<ellipse class="st3" cx="482.8" cy="227.9" rx="1.7" ry="1.6"/>
			<ellipse class="st3" cx="505.3" cy="220.6" rx="1.7" ry="1.6"/>
			<path class="st3" d="M465.8,235.8c-1.1,0-2.1-0.9-2.1-2s0.9-2,2.1-2c1.1,0,2.1,0.9,2.1,2S467,235.8,465.8,235.8L465.8,235.8z
				 M465.8,232.6c-0.7,0-1.1,0.4-1.1,1.1s0.6,1.1,1.1,1.1c0.7,0,1.1-0.4,1.1-1.1S466.4,232.6,465.8,232.6L465.8,232.6L465.8,232.6z"
				/>
			<path class="st3" d="M463.4,222.8l2.9,2.6c0.7,0.6,1.7-0.3,1-1l-2.9-2.6C463.7,221.2,462.7,222.1,463.4,222.8z"/>
			<path class="st3" d="M466.1,221.6l-2.7,2.8c-0.7,0.7,0.4,1.7,1,1l2.7-2.8C467.7,222,466.7,221,466.1,221.6z"/>
			<path class="st3" d="M505.4,227.4l-2.7,2.8c-0.7,0.7,0.3,1.7,1,1l2.7-2.8C507,227.7,506,226.7,505.4,227.4z"/>
			<path class="st3" d="M506.4,230.1l-2.9-2.6c-0.7-0.6-1.7,0.3-1,1l2.9,2.6C506.1,231.7,507.1,230.6,506.4,230.1z"/>
		</g>
		<g class="st2">
			<ellipse class="st3" cx="311" cy="305.4" rx="1.7" ry="1.6"/>
			<ellipse class="st3" cx="333.5" cy="312.7" rx="1.7" ry="1.6"/>
			<path class="st3" d="M294,297.7c1.1,0,2.1,0.9,2.1,2s-0.9,2-2.1,2c-1.1,0-2.1-0.9-2.1-2S292.8,297.7,294,297.7L294,297.7z
				 M294,300.8L294,300.8c0.7,0,1.1-0.4,1.1-1.1s-0.6-1.1-1.1-1.1c-0.7,0-1.1,0.4-1.1,1.1C292.8,300.3,293.3,300.8,294,300.8
				L294,300.8z"/>
			<path class="st3" d="M292.5,311.6l2.9-2.6c0.7-0.6-0.3-1.6-1-1l-2.9,2.6C290.8,311.3,291.9,312.3,292.5,311.6z"/>
			<path class="st3" d="M295.2,310.8l-2.7-2.8c-0.7-0.7-1.7,0.3-1,1l2.7,2.8C294.9,312.4,295.9,311.4,295.2,310.8z"/>
			<path class="st3" d="M334.5,305.1l-2.7-2.8c-0.7-0.7-1.7,0.3-1,1l2.7,2.8C334.1,306.7,335.1,305.7,334.5,305.1z"/>
			<path class="st3" d="M333.6,302.4l-2.9,2.6c-0.7,0.6,0.3,1.6,1,1l2.9-2.6C335.2,302.7,334.2,301.7,333.6,302.4z"/>
			<ellipse class="st3" cx="309.3" cy="382.6" rx="1.7" ry="1.6"/>
			<ellipse class="st3" cx="331.8" cy="389.9" rx="1.7" ry="1.6"/>
			<path class="st3" d="M292.3,374.8c1.1,0,2.1,0.9,2.1,2s-0.9,2-2.1,2c-1.1,0-2.1-0.9-2.1-2C290.2,375.7,291.1,374.8,292.3,374.8
				L292.3,374.8z M292.3,378L292.3,378c0.7,0,1.1-0.4,1.1-1.1s-0.6-1.1-1.1-1.1c-0.7,0-1.1,0.4-1.1,1.1
				C291.1,377.4,291.6,378,292.3,378L292.3,378z"/>
			<path class="st3" d="M290.8,388.8l2.9-2.6c0.7-0.6-0.3-1.6-1-1l-2.9,2.6C289.2,388.4,290.2,389.4,290.8,388.8z"/>
			<path class="st3" d="M293.5,388l-2.7-2.8c-0.7-0.7-1.7,0.3-1,1l2.7,2.8C293.2,389.5,294.2,388.5,293.5,388z"/>
			<path class="st3" d="M332.8,382.2l-2.7-2.8c-0.7-0.7-1.7,0.3-1,1l2.7,2.8C332.4,383.8,333.5,382.8,332.8,382.2z"/>
			<path class="st3" d="M331.9,379.5l-2.9,2.6c-0.7,0.6,0.3,1.6,1,1l2.9-2.6C333.6,379.9,332.6,378.9,331.9,379.5z"/>
			<ellipse class="st3" cx="380.6" cy="345.7" rx="1.7" ry="1.6"/>
			<ellipse class="st3" cx="403.1" cy="353" rx="1.7" ry="1.6"/>
			<path class="st3" d="M363.6,337.9c1.1,0,2.1,0.9,2.1,2s-0.9,2-2.1,2c-1.1,0-2.1-0.9-2.1-2S362.4,337.9,363.6,337.9L363.6,337.9z
				 M363.6,341.1L363.6,341.1c0.7,0,1.1-0.4,1.1-1.1s-0.6-1.1-1.1-1.1c-0.7,0-1.1,0.4-1.1,1.1C362.4,340.5,363,341.1,363.6,341.1
				L363.6,341.1z"/>
			<path class="st3" d="M362.2,351.8l2.9-2.6c0.7-0.6-0.3-1.6-1-1l-2.9,2.6C360.5,351.5,361.5,352.5,362.2,351.8z"/>
			<path class="st3" d="M364.9,351.1l-2.7-2.8c-0.7-0.7-1.7,0.3-1,1l2.7,2.8C364.5,352.6,365.6,351.6,364.9,351.1z"/>
			<path class="st3" d="M404.1,345.3l-2.7-2.8c-0.7-0.7-1.7,0.3-1,1l2.7,2.8C403.8,346.9,404.8,345.9,404.1,345.3z"/>
			<path class="st3" d="M403.2,342.6l-2.9,2.6c-0.7,0.6,0.3,1.6,1,1l2.9-2.6C404.9,343,403.9,342,403.2,342.6z"/>
			<ellipse class="st3" cx="445.6" cy="384.1" rx="1.7" ry="1.6"/>
			<ellipse class="st3" cx="468" cy="391.5" rx="1.7" ry="1.6"/>
			<path class="st3" d="M428.6,376.4c1.1,0,2.1,0.9,2.1,2s-0.9,2-2.1,2c-1.1,0-2.1-0.9-2.1-2S427.4,376.4,428.6,376.4L428.6,376.4z
				 M428.6,379.5L428.6,379.5c0.7,0,1.1-0.4,1.1-1.1s-0.6-1.1-1.1-1.1c-0.7,0-1.1,0.4-1.1,1.1C427.4,379,427.9,379.5,428.6,379.5
				L428.6,379.5z"/>
			<path class="st3" d="M427.1,390.3l2.9-2.6c0.7-0.6-0.3-1.6-1-1l-2.9,2.6C425.4,390,426.5,391,427.1,390.3z"/>
			<path class="st3" d="M429.8,389.5l-2.7-2.8c-0.7-0.7-1.7,0.3-1,1l2.7,2.8C429.5,391.1,430.5,390.1,429.8,389.5z"/>
			<path class="st3" d="M469.1,383.8l-2.7-2.8c-0.7-0.7-1.7,0.3-1,1l2.7,2.8C468.7,385.4,469.7,384.4,469.1,383.8z"/>
			<path class="st3" d="M468.2,381.1l-2.9,2.6c-0.7,0.6,0.3,1.6,1,1l2.9-2.6C469.8,381.4,468.8,380.4,468.2,381.1z"/>
			<ellipse class="st3" cx="500.8" cy="341.1" rx="1.7" ry="1.6"/>
			<ellipse class="st3" cx="523.3" cy="348.4" rx="1.7" ry="1.6"/>
			<path class="st3" d="M483.8,333.3c1.1,0,2.1,0.9,2.1,2s-0.9,2-2.1,2c-1.1,0-2.1-0.9-2.1-2C481.7,334.2,482.6,333.3,483.8,333.3
				L483.8,333.3z M483.8,336.4L483.8,336.4c0.7,0,1.1-0.4,1.1-1.1s-0.6-1.1-1.1-1.1c-0.7,0-1.1,0.4-1.1,1.1
				C482.6,335.9,483.1,336.4,483.8,336.4L483.8,336.4z"/>
			<path class="st3" d="M482.4,347.2l2.9-2.6c0.7-0.6-0.3-1.6-1-1l-2.9,2.6C480.7,346.9,481.7,347.9,482.4,347.2z"/>
			<path class="st3" d="M485.1,346.5l-2.7-2.8c-0.7-0.7-1.7,0.3-1,1l2.7,2.8C484.7,348,485.7,347,485.1,346.5z"/>
			<path class="st3" d="M524.3,340.7l-2.7-2.8c-0.7-0.7-1.7,0.3-1,1l2.7,2.8C524,342.3,525,341.3,524.3,340.7z"/>
			<path class="st3" d="M523.4,338l-2.9,2.6c-0.7,0.6,0.3,1.6,1,1l2.9-2.6C525.1,338.4,524.1,337.3,523.4,338z"/>
			<ellipse class="st3" cx="442.2" cy="307.3" rx="1.7" ry="1.6"/>
			<ellipse class="st3" cx="464.8" cy="314.6" rx="1.7" ry="1.6"/>
			<path class="st3" d="M425.2,299.5c1.1,0,2.1,0.9,2.1,2s-0.9,2-2.1,2c-1.1,0-2.1-0.9-2.1-2S424.1,299.5,425.2,299.5L425.2,299.5z
				 M425.2,302.7L425.2,302.7c0.7,0,1.1-0.4,1.1-1.1s-0.6-1.1-1.1-1.1c-0.7,0-1.1,0.4-1.1,1.1C424.1,302.1,424.7,302.7,425.2,302.7
				L425.2,302.7z"/>
			<path class="st3" d="M423.9,313.5l2.9-2.6c0.7-0.6-0.3-1.6-1-1l-2.9,2.6C422.1,313.1,423.1,314.1,423.9,313.5z"/>
			<path class="st3" d="M426.6,312.7l-2.7-2.8c-0.7-0.7-1.7,0.3-1,1l2.7,2.8C426.2,314.3,427.2,313.2,426.6,312.7z"/>
			<path class="st3" d="M465.8,306.9l-2.7-2.8c-0.7-0.7-1.7,0.3-1,1l2.7,2.8C465.5,308.5,466.5,307.5,465.8,306.9z"/>
			<path class="st3" d="M464.9,304.2l-2.9,2.6c-0.7,0.6,0.3,1.6,1,1l2.9-2.6C466.6,304.6,465.6,303.6,464.9,304.2z"/>
		</g>
		<g>
			
				<image style="overflow:visible;opacity:0.6;" width="100" height="58" xlink:href="2A1F5964.png"  transform="matrix(1 0 0 1 172 95.6)">
			</image>
			<g>
				<path class="st4" d="M190.2,119.2c-2.6,10.7,23.6,12.1,34.3,12.3c2.9,0,6-0.2,8.9-0.8c9.1-1.8,29-6.5,26.2-12.9
					c-3.6-8.2-14.4-2.5-14.4-2.5s1.3-6.2-17.1-10.3s-18.3,9.6-18.3,9.6S193.5,105.6,190.2,119.2z"/>
			</g>
		</g>
		<g>
			
				<image style="overflow:visible;opacity:0.6;" width="137" height="59" xlink:href="2A1F5967.png"  transform="matrix(1 0 0 1 333 11.6)">
			</image>
			<g>
				<path class="st4" d="M457.4,48.4H353.8c0,0-5.6-6,0-10.1c3-2.2,6.7-1.9,9.4-1.3c1.6,0.4,3.3-0.6,3.8-2c0.7-2.5,2.6-5.6,8.2-7.6
					s8.9,1,10.9,3.9c0.6,0.7,1.6,0.8,2.4,0.3c0.2-0.1,0.4-0.3,0.6-0.7c1.7-4.6,7.8-10.8,27.7-10.8c25.4,0,22.5,11.4,20.2,16.1
					c-0.4,0.8,0.4,1.7,1.5,1.5c3.9-0.7,11.1-1.7,14.4,0.6C457.4,41.4,457.4,48.4,457.4,48.4z"/>
			</g>
		</g>
		
			<linearGradient id="SVGID_3_" gradientUnits="userSpaceOnUse" x1="122.2" y1="1116.9" x2="151.0599" y2="1116.9" gradientTransform="matrix(1 0 0 1 0 -732)">
			<stop  offset="0" style="stop-color:#DA1B60"/>
			<stop  offset="1" style="stop-color:#F28705"/>
		</linearGradient>
		<ellipse class="st5" cx="136.6" cy="384.9" rx="14.4" ry="14.1"/>
		
			<linearGradient id="SVGID_4_" gradientUnits="userSpaceOnUse" x1="68.4961" y1="361.3834" x2="136.5862" y2="361.3834" gradientTransform="matrix(1 0 0 -1 0 432)">
			<stop  offset="0" style="stop-color:#DA1B60"/>
			<stop  offset="1" style="stop-color:#F28705"/>
		</linearGradient>
		<path class="st6" d="M102.7,40.8c9.3,0,18.7,0.1,28,0c4.3-0.1,6,1.8,6,6c-0.1,16.5,0,33,0,49.5c0,1.5,0.3,3.2-1.3,4
			c-1.8,0.9-2.6-1-3.7-1.8c-0.1-0.1-0.3-0.2-0.4-0.4c-8.5-12.7-20.5-16.4-35.3-14.4c-6.7,0.9-13.6,0.2-20.5,0.1
			c-5.4,0-6.9-1.5-6.9-6.8c-0.1-10,0.1-20-0.1-30c-0.1-4.4,1.7-6.4,6.2-6.3C84,40.9,93.4,40.8,102.7,40.8z"/>
		
			<linearGradient id="SVGID_5_" gradientUnits="userSpaceOnUse" x1="570.8943" y1="205.3204" x2="626.0035" y2="205.3204" gradientTransform="matrix(1 0 0 -1 0 432)">
			<stop  offset="0" style="stop-color:#DA1B60"/>
			<stop  offset="1" style="stop-color:#F28705"/>
		</linearGradient>
		<path class="st7" d="M587.3,209.7c-0.4,4.1-4.3,6-4.6,9.6c6.2,1.7,10.7,0.2,13.5-5.8c0.8-1.8,1.9-4,4.7-3.7c2.1,0.2,5-1,6.2,0.6
			c1.5,2-1.5,3.6-2.3,5.5c-0.4,1-1.9,1.8-1.4,3c0.7,1.6,2.4,0.7,3.6,0.9c3.9,0.6,6.8-0.6,8.5-4.3c0.7-1.5,1.7-2.8,2.7-4.2
			c1.6-2.2,3.9-1.6,6-1.3c2.4,0.3,1.7,2.5,1.7,4c0.1,8-0.1,16,0.1,24c0.1,4.4-1.9,5.9-6.1,5.8c-14.3-0.1-28.7-0.1-43,0
			c-4.2,0-6.1-1.5-6-5.9c0.2-8,0.2-16,0-24c-0.1-3.4,1.1-4.4,4.3-4.2C579.2,209.9,583.1,209.7,587.3,209.7z"/>
		
			<linearGradient id="SVGID_6_" gradientUnits="userSpaceOnUse" x1="543.7813" y1="368.7156" x2="587.5746" y2="368.7156" gradientTransform="matrix(1 0 0 -1 0 432)">
			<stop  offset="0" style="stop-color:#DA1B60"/>
			<stop  offset="1" style="stop-color:#F28705"/>
		</linearGradient>
		<path class="st8" d="M550.6,78.9c4.2-7.2-0.1-12.8-5.6-18.1c-1.9-1.9-1.4-3.6,0.9-4.7c0.9-0.4,1.9-0.9,2.8-0.9
			c6.7,0.5,10.9-2.5,13-9c0.6-2,1.5-4.7,3.9-4.7c2.6,0,3.9,2.5,4.6,4.7c2.1,6.3,6.1,9.5,12.9,9c1.7-0.1,3.7,0.7,4.4,2.7
			c0.6,2-1.1,3-2.2,4.1c-4.3,4.4-7.8,8.9-4.7,15.6c0.5,1.1,0.2,2.6,0.2,4c-0.1,2.8-1.7,4.5-4.1,2.7c-7.3-5.3-14.1-5.1-21.6-0.2
			C550.6,87.1,550.9,82.5,550.6,78.9z"/>
		
			<linearGradient id="SVGID_7_" gradientUnits="userSpaceOnUse" x1="81.5992" y1="119.3469" x2="123.6" y2="119.3469" gradientTransform="matrix(1 0 0 -1 0 432)">
			<stop  offset="0" style="stop-color:#DA1B60"/>
			<stop  offset="1" style="stop-color:#F28705"/>
		</linearGradient>
		<path class="st9" d="M102.8,291.7c11.6,0.1,20.8,9.5,20.8,21c0,11.8-9.7,21.2-21.4,20.9c-11.6-0.2-20.7-9.7-20.6-21.3
			C81.8,300.9,91.2,291.6,102.8,291.7z"/>
		
			<linearGradient id="SVGID_8_" gradientUnits="userSpaceOnUse" x1="18.5" y1="223.4757" x2="71.1" y2="223.4757" gradientTransform="matrix(1 0 0 -1 0 432)">
			<stop  offset="0" style="stop-color:#DA1B60"/>
			<stop  offset="1" style="stop-color:#F28705"/>
		</linearGradient>
		<path class="st10" d="M70.2,228.3c-8.5-6.2-25.4-9.6-25.4-9.6S27.4,222,18.5,229c0.5-6.1,3.2-8.7,4.9-11.4
			c5.1-8.6,10.7-16.9,16.3-25.2c3.8-5.7,6.1-5.8,9.7-0.3c7.3,11.2,14.5,22.5,21.7,33.8C70.8,226.7,70.5,227.5,70.2,228.3z"/>
		
			<linearGradient id="SVGID_9_" gradientUnits="userSpaceOnUse" x1="19.3" y1="194.3233" x2="66.8" y2="194.3233" gradientTransform="matrix(1 0 0 -1 0 432)">
			<stop  offset="0" style="stop-color:#DA1B60"/>
			<stop  offset="1" style="stop-color:#F28705"/>
		</linearGradient>
		<path class="st11" d="M19.3,234c8-3.6,14.8-6.7,21.7-9.9c1.5-0.7,2.8-0.9,4.4-0.1c7,3.4,14.4,5.9,21.4,10.4
			c-6.6,5.3-12.9,10.4-19.2,15.7c-3.1,2.6-5.9,2.2-8.9-0.3C32.5,244.6,26.3,239.6,19.3,234z"/>
		
			<linearGradient id="SVGID_10_" gradientUnits="userSpaceOnUse" x1="498.8228" y1="135.9982" x2="520.3532" y2="135.9982" gradientTransform="matrix(1 0 0 -1 0 432)">
			<stop  offset="0" style="stop-color:#DA1B60"/>
			<stop  offset="1" style="stop-color:#F28705"/>
		</linearGradient>
		<path class="st12" d="M509.4,285.4c6.4-0.1,11,4.5,11,10.8c0,4.8-5.4,10.2-10.5,10.4c-5.2,0.2-10.9-5.3-11.1-10.7
			C498.6,290.2,503.4,285.4,509.4,285.4z"/>
		
			<linearGradient id="SVGID_11_" gradientUnits="userSpaceOnUse" x1="569.9689" y1="234.836" x2="587.3568" y2="234.836" gradientTransform="matrix(1 0 0 -1 0 432)">
			<stop  offset="0" style="stop-color:#DA1B60"/>
			<stop  offset="1" style="stop-color:#F28705"/>
		</linearGradient>
		<path class="st13" d="M587.3,200.2c-4,1.8-8.1,1.2-11.9,2.3c-3.5,1-4.9-1.1-5.3-4.1c-0.4-2.7-0.5-5.1,3.3-6
			C581.2,190.7,582,190.9,587.3,200.2z"/>
		
			<linearGradient id="SVGID_12_" gradientUnits="userSpaceOnUse" x1="551.4025" y1="134.4561" x2="565.2285" y2="134.4561" gradientTransform="matrix(1 0 0 -1 0 432)">
			<stop  offset="0" style="stop-color:#DA1B60"/>
			<stop  offset="1" style="stop-color:#F28705"/>
		</linearGradient>
		<path class="st14" d="M557.9,299.9c2.2-3.4,2-6.7,3.1-9.5c0.6-1.5,1.1-3,3.1-2.2c1.9,0.7,0.8,2.1,0.5,3.4c-1.1,4.3-2.3,8.6-3.4,13
			c-0.4,1.4-1.1,2.4-2.7,2.5c-1.5,0.1-2.6-0.5-3.1-2c-1.4-4.8-2.7-9.5-4-14.3c-0.3-1.2-0.1-2.4,1.5-2.6c1.4-0.2,2.1,0.5,2.4,1.9
			C556.1,292.9,556.9,296,557.9,299.9z"/>
		
			<linearGradient id="SVGID_13_" gradientUnits="userSpaceOnUse" x1="567.3506" y1="134.8577" x2="578.1072" y2="134.8577" gradientTransform="matrix(1 0 0 -1 0 432)">
			<stop  offset="0" style="stop-color:#DA1B60"/>
			<stop  offset="1" style="stop-color:#F28705"/>
		</linearGradient>
		<path class="st15" d="M567.4,297.4c0-0.8,0-1.7,0-2.5c0-7.1,1.8-8.6,8.8-7.1c0.8,0.2,1.7,0.3,1.9,1.3c0.2,1.4-0.8,1.6-1.9,1.7
			c-0.5,0-1,0.1-1.5,0c-1.8,0-3.4,0.1-3.3,2.6c0,2.1,1.3,2.4,3,2.4c1.1,0,2.6-0.2,2.7,1.5c0,1.6-1.4,1.6-2.6,1.6
			c-2,0-3.2,0.5-3.1,2.8c0.2,2.2,1.7,2,3.2,2.2c1.3,0.1,3.6-0.7,3.4,1.6c-0.1,2.1-2.3,1.4-3.7,1.4
			C565.7,306.9,567.6,307.7,567.4,297.4z"/>
		
			<linearGradient id="SVGID_14_" gradientUnits="userSpaceOnUse" x1="531.3552" y1="134.4114" x2="542.0864" y2="134.4114" gradientTransform="matrix(1 0 0 -1 0 432)">
			<stop  offset="0" style="stop-color:#DA1B60"/>
			<stop  offset="1" style="stop-color:#F28705"/>
		</linearGradient>
		<path class="st16" d="M531.4,297.5c0-2.7,0-5.3,0-8c0-1.2,0.2-2.4,1.8-2.5c1.9-0.1,2.2,1.1,2.2,2.6c0,3.3,0.1,6.7,0,10
			c-0.1,2.7,0.3,4.6,3.7,4.3c1.2-0.1,3-0.4,3.1,1.6s-1.5,2.2-3.1,2.4c-7,0.8-7.6,0.3-7.6-6.8C531.4,299.9,531.4,298.7,531.4,297.5
			L531.4,297.5z"/>
		
			<linearGradient id="SVGID_15_" gradientUnits="userSpaceOnUse" x1="592.7174" y1="238.1529" x2="607.1515" y2="238.1529" gradientTransform="matrix(1 0 0 -1 0 432)">
			<stop  offset="0" style="stop-color:#DA1B60"/>
			<stop  offset="1" style="stop-color:#F28705"/>
		</linearGradient>
		<path class="st17" d="M592.7,190.2c8.6-2.5,10.1-1.9,13.8,4.7c1.3,2.2,0.4,2.7-1.6,3.3C599.1,200.1,595.8,198,592.7,190.2z"/>
		
			<linearGradient id="SVGID_16_" gradientUnits="userSpaceOnUse" x1="612.3" y1="241.0947" x2="625.2209" y2="241.0947" gradientTransform="matrix(1 0 0 -1 0 432)">
			<stop  offset="0" style="stop-color:#DA1B60"/>
			<stop  offset="1" style="stop-color:#F28705"/>
		</linearGradient>
		<path class="st18" d="M612.3,187.2c2.1-0.5,3.7-0.9,5.3-1.2c5.3-1.1,8.6,2.4,7.4,7.7c-0.3,1.4-1,1.9-2.3,2
			c-1.9,0.1-3.9,1.1-5.3-1.1C615.8,192.2,614.2,190,612.3,187.2z"/>
		
			<linearGradient id="SVGID_17_" gradientUnits="userSpaceOnUse" x1="544.4" y1="134.4987" x2="548.3784" y2="134.4987" gradientTransform="matrix(1 0 0 -1 0 432)">
			<stop  offset="0" style="stop-color:#DA1B60"/>
			<stop  offset="1" style="stop-color:#F28705"/>
		</linearGradient>
		<path class="st19" d="M548.4,297.3c0,2.7,0,5.3,0,8c0,1.2-0.2,2.4-1.8,2.5c-1.5,0.1-2.1-0.7-2.2-2.1c0-5.3,0-10.6,0-15.9
			c0-1.5,0.8-2.7,2.4-2.6c1.6,0.1,1.5,1.5,1.5,2.6C548.4,292.3,548.4,294.8,548.4,297.3z"/>
		<path class="st20" d="M102.6,56.8c5,0,10,0,14.9,0c2.6,0,4.8,1,4.9,3.8c0.1,3.1-2.1,4.2-4.9,4.2c-10,0-19.9,0-29.9,0
			c-2.6,0-4.8-1-4.9-3.8c-0.1-3.1,2.1-4.2,4.9-4.2C92.6,56.8,97.6,56.8,102.6,56.8z"/>
		<path class="st20" d="M102.6,328.7c-8,0-16.1-8-16-16s8.2-16,16.2-15.9c7.8,0.2,15.6,7.9,15.8,15.8
			C118.7,320.5,110.6,328.7,102.6,328.7z"/>
		
			<linearGradient id="SVGID_18_" gradientUnits="userSpaceOnUse" x1="95.2206" y1="110.4496" x2="110.3297" y2="110.4496" gradientTransform="matrix(1 0 0 -1 0 432)">
			<stop  offset="0" style="stop-color:#DA1B60"/>
			<stop  offset="1" style="stop-color:#F28705"/>
		</linearGradient>
		<path class="st21" d="M102.3,317.7c1.4,0,2.4-0.1,3.4,0c1.6,0.3,4.1-1.1,4.6,1.5c0.4,2-1.1,3.8-2.9,4.9c-1.1,0.7-2.4,1.1-3.7,1.4
			c-3.2,0.7-9.2-3.2-8.5-5.9C96.4,315.6,100.3,318.8,102.3,317.7z"/>
		
			<linearGradient id="SVGID_19_" gradientUnits="userSpaceOnUse" x1="92.7138" y1="121.7653" x2="97.4174" y2="121.7653" gradientTransform="matrix(1 0 0 -1 0 432)">
			<stop  offset="0" style="stop-color:#DA1B60"/>
			<stop  offset="1" style="stop-color:#F28705"/>
		</linearGradient>
		<path class="st22" d="M95.4,312.6c-1.4,0-2.4-0.6-2.6-1.9c-0.3-1.6,0.5-2.6,2-2.8c1.3-0.2,2.3,0.6,2.5,1.8
			C97.7,311.3,96.8,312.2,95.4,312.6z"/>
		
			<linearGradient id="SVGID_20_" gradientUnits="userSpaceOnUse" x1="107.761" y1="121.7089" x2="112.5129" y2="121.7089" gradientTransform="matrix(1 0 0 -1 0 432)">
			<stop  offset="0" style="stop-color:#DA1B60"/>
			<stop  offset="1" style="stop-color:#F28705"/>
		</linearGradient>
		<path class="st23" d="M112.5,310.1c-0.2,1.4-0.8,2.4-2.2,2.5c-1.6,0.1-2.6-0.8-2.6-2.3s1-2.5,2.6-2.3
			C111.7,308,112.3,309,112.5,310.1z"/>
	</g>
</g>
</svg>
