<?xml version="1.0" encoding="utf-8"?>
<!-- Generator: Adobe Illustrator 22.1.0, SVG Export Plug-In . SVG Version: 6.00 Build 0)  -->
<svg version="1.1" id="Capa_1" xmlns="http://www.w3.org/2000/svg" xmlns:xlink="http://www.w3.org/1999/xlink" x="0px" y="0px"
	 viewBox="6 -512 512 512" style="enable-background:new 6 -512 512 512;" xml:space="preserve">
<style type="text/css">
	.st0{fill:url(#SVGID_1_);}
	.st1{fill:url(#SVGID_2_);}
	.st2{fill:url(#SVGID_3_);}
	.st3{fill:url(#SVGID_4_);}
	.st4{fill:url(#SVGID_5_);}
	.st5{fill:url(#SVGID_6_);}
</style>
<g>
	<g>
		<g>
			
				<linearGradient id="SVGID_1_" gradientUnits="userSpaceOnUse" x1="18.2016" y1="-16644.1445" x2="505.7984" y2="-16644.1445" gradientTransform="matrix(1 0 0 -1 0 -16896)">
				<stop  offset="0" style="stop-color:#FF8A00"/>
				<stop  offset="0.3114" style="stop-color:#F3661F"/>
				<stop  offset="1" style="stop-color:#DA1B60"/>
			</linearGradient>
			<path class="st0" d="M262-495.7c-134.6,0-243.8,109.2-243.8,243.8C18.4-117.3,127.4-8.2,262-8.1c134.6,0,243.8-109.2,243.8-243.8
				S396.6-495.7,262-495.7z M262-36.7C143.2-36.7,46.9-133,46.9-251.9C47-370.6,143.3-466.8,262-467c118.8,0,215.1,96.3,215.1,215.1
				S380.8-36.7,262-36.7z"/>
		</g>
	</g>
</g>
<g id="Icon_Test">
	<linearGradient id="SVGID_2_" gradientUnits="userSpaceOnUse" x1="172.5655" y1="-268.2016" x2="322.8366" y2="-268.2016">
		<stop  offset="0" style="stop-color:#FF8A00"/>
		<stop  offset="0.3114" style="stop-color:#F3661F"/>
		<stop  offset="1" style="stop-color:#DA1B60"/>
	</linearGradient>
	<path class="st1" d="M193.4-158.7h-11.8c-5,0-9.1-4-9.1-9v-200.9c0-5,4.1-9,9.1-9h107.2c2.6,0,5,1.1,6.7,3.1l27.2,32.6L310-330.4
		l-25.2-29.3h-94.5V-176h3.1V-158.7z"/>
	<linearGradient id="SVGID_3_" gradientUnits="userSpaceOnUse" x1="203.4369" y1="-235.5078" x2="367.9633" y2="-235.5078">
		<stop  offset="0" style="stop-color:#FF8A00"/>
		<stop  offset="0.3114" style="stop-color:#F3661F"/>
		<stop  offset="1" style="stop-color:#DA1B60"/>
	</linearGradient>
	<path class="st2" d="M359.2-126H212.5c-5,0-9.1-4-9.1-9V-336c0-5,4.1-9,9.1-9h113.2c2.3,0,4.5,0.9,6.2,2.5l33.5,33.8
		c1.6,1.7,2.5,3.8,2.5,6.1v167.9C367.8-130,364-126.2,359.2-126z M221.2-142.9h129.3V-299l-28.4-28.4H221.2V-142.9z"/>
	<linearGradient id="SVGID_4_" gradientUnits="userSpaceOnUse" x1="307.5825" y1="-310.6043" x2="359.2467" y2="-310.6043">
		<stop  offset="0" style="stop-color:#FF8A00"/>
		<stop  offset="0.3114" style="stop-color:#F3661F"/>
		<stop  offset="1" style="stop-color:#DA1B60"/>
	</linearGradient>
	<path class="st3" d="M359.2-284.9h-42.6c-5,0-9.1-4-9.1-9v-42.4H325v33.7h33.9L359.2-284.9z"/>
	<linearGradient id="SVGID_5_" gradientUnits="userSpaceOnUse" x1="241.5211" y1="-222.4102" x2="278.527" y2="-222.4102">
		<stop  offset="0" style="stop-color:#FF8A00"/>
		<stop  offset="0.3114" style="stop-color:#F3661F"/>
		<stop  offset="1" style="stop-color:#DA1B60"/>
	</linearGradient>
	<path class="st4" d="M278.1-173.1h-5.7c-4.5,0.1-8.8-1.8-11.6-5.2c-3.6-5.3-4.9-11.8-3.7-18.1c-0.5-16.1-9.6-18.7-9.6-18.7
		c-4.7-1.8-7-7-5.3-11.6c0.9-2.4,2.8-4.3,5.3-5.2c0.8,0,9.1-3.3,9.1-19.2c0-9.5,4.4-20,15.1-20.4h6v17.4h-2.9c-0.1,1-0.1,2,0,3
		c0.6,10.1-2.6,20-9.1,27.8c6.4,7.8,9.7,17.7,9.1,27.7c0.1,0.5,0.1,1.1,0,1.6c-0.1,1.3-0.1,2.6,0,3.9h3.9L278.1-173.1z"/>
	<linearGradient id="SVGID_6_" gradientUnits="userSpaceOnUse" x1="301.953" y1="-222.3678" x2="338.374" y2="-222.3678">
		<stop  offset="0" style="stop-color:#FF8A00"/>
		<stop  offset="0.3114" style="stop-color:#F3661F"/>
		<stop  offset="1" style="stop-color:#DA1B60"/>
	</linearGradient>
	<path class="st5" d="M302.5-173.1v-17.3h3.4c0.1-1,0.1-1.9,0-2.9c-0.6-10.1,2.6-20,9.1-27.8c-6.4-7.8-9.7-17.7-9.1-27.7
		c0-0.5,0-1.1,0-1.6c0.1-1.3,0.1-2.5,0-3.8H302v-17.4h5.7c4.5-0.1,8.7,1.9,11.6,5.2c3.6,5.3,4.9,11.8,3.7,18.1
		c0,15.4,9.1,18.1,9.1,18.6c3.9,1.3,6.5,5,6.3,9c0,3.9-2.6,7.3-6.4,8.2c-0.7,0-9.1,3.3-9.1,19.3c0,9.5-4.4,20-15.1,20.3L302.5-173.1
		z"/>
</g>
</svg>
