<?xml version="1.0" encoding="utf-8"?>
<!-- Generator: Adobe Illustrator 22.1.0, SVG Export Plug-In . SVG Version: 6.00 Build 0)  -->
<svg version="1.1" id="Capa_1" xmlns="http://www.w3.org/2000/svg" xmlns:xlink="http://www.w3.org/1999/xlink" x="0px" y="0px"
	 viewBox="6 -512 512 512" style="enable-background:new 6 -512 512 512;" xml:space="preserve">
<style type="text/css">
	.st0{fill:url(#SVGID_1_);}
	.st1{fill:url(#SVGID_2_);}
	.st2{fill:url(#SVGID_3_);}
	.st3{fill:url(#SVGID_4_);}
	.st4{fill:url(#SVGID_5_);}
	.st5{fill:url(#SVGID_6_);}
	.st6{fill:url(#SVGID_7_);}
	.st7{fill:url(#SVGID_8_);}
	.st8{fill:url(#SVGID_9_);}
	.st9{fill:url(#SVGID_10_);}
	.st10{fill:url(#SVGID_11_);}
	.st11{fill:url(#SVGID_12_);}
	.st12{fill:url(#SVGID_13_);}
	.st13{fill:url(#SVGID_14_);}
</style>
<g>
	<g>
		<linearGradient id="SVGID_1_" gradientUnits="userSpaceOnUse" x1="279.0667" y1="-470.1333" x2="296.1333" y2="-470.1333">
			<stop  offset="0" style="stop-color:#FF8A00"/>
			<stop  offset="0.3114" style="stop-color:#F3661F"/>
			<stop  offset="1" style="stop-color:#DA1B60"/>
		</linearGradient>
		<rect x="279.1" y="-500" class="st0" width="17.1" height="59.7"/>
	</g>
</g>
<g>
	<g>
		<linearGradient id="SVGID_2_" gradientUnits="userSpaceOnUse" x1="407.0667" y1="-487.2" x2="424.1333" y2="-487.2">
			<stop  offset="0" style="stop-color:#FF8A00"/>
			<stop  offset="0.3114" style="stop-color:#F3661F"/>
			<stop  offset="1" style="stop-color:#DA1B60"/>
		</linearGradient>
		<rect x="407.1" y="-500" class="st1" width="17.1" height="25.6"/>
	</g>
</g>
<g>
	<g>
		<linearGradient id="SVGID_3_" gradientUnits="userSpaceOnUse" x1="236.4" y1="-401.8667" x2="253.4667" y2="-401.8667">
			<stop  offset="0" style="stop-color:#FF8A00"/>
			<stop  offset="0.3114" style="stop-color:#F3661F"/>
			<stop  offset="1" style="stop-color:#DA1B60"/>
		</linearGradient>
		<rect x="236.4" y="-440.3" class="st2" width="17.1" height="76.8"/>
	</g>
</g>
<g>
	<g>
		<linearGradient id="SVGID_4_" gradientUnits="userSpaceOnUse" x1="173.9" y1="-461.6" x2="190.9667" y2="-461.6">
			<stop  offset="0" style="stop-color:#FF8A00"/>
			<stop  offset="0.3114" style="stop-color:#F3661F"/>
			<stop  offset="1" style="stop-color:#DA1B60"/>
		</linearGradient>
		<rect x="173.9" y="-500" class="st3" width="17.1" height="76.8"/>
	</g>
</g>
<g>
	<g>
		<linearGradient id="SVGID_5_" gradientUnits="userSpaceOnUse" x1="82.8" y1="-487.2" x2="99.8667" y2="-487.2">
			<stop  offset="0" style="stop-color:#FF8A00"/>
			<stop  offset="0.3114" style="stop-color:#F3661F"/>
			<stop  offset="1" style="stop-color:#DA1B60"/>
		</linearGradient>
		<rect x="82.8" y="-500" class="st4" width="17.1" height="25.6"/>
	</g>
</g>
<g>
	<g>
		<linearGradient id="SVGID_6_" gradientUnits="userSpaceOnUse" x1="279.0667" y1="-346.4" x2="296.1333" y2="-346.4">
			<stop  offset="0" style="stop-color:#FF8A00"/>
			<stop  offset="0.3114" style="stop-color:#F3661F"/>
			<stop  offset="1" style="stop-color:#DA1B60"/>
		</linearGradient>
		<rect x="279.1" y="-354.9" class="st5" width="17.1" height="17.1"/>
	</g>
</g>
<g>
	<g>
		<linearGradient id="SVGID_7_" gradientUnits="userSpaceOnUse" x1="173.9" y1="-393.3333" x2="190.9667" y2="-393.3333">
			<stop  offset="0" style="stop-color:#FF8A00"/>
			<stop  offset="0.3114" style="stop-color:#F3661F"/>
			<stop  offset="1" style="stop-color:#DA1B60"/>
		</linearGradient>
		<rect x="173.9" y="-401.9" class="st6" width="17.1" height="17.1"/>
	</g>
</g>
<g>
	<g>
		<linearGradient id="SVGID_8_" gradientUnits="userSpaceOnUse" x1="108.4" y1="-457.3333" x2="125.4667" y2="-457.3333">
			<stop  offset="0" style="stop-color:#FF8A00"/>
			<stop  offset="0.3114" style="stop-color:#F3661F"/>
			<stop  offset="1" style="stop-color:#DA1B60"/>
		</linearGradient>
		<rect x="108.4" y="-465.9" class="st7" width="17.1" height="17.1"/>
	</g>
</g>
<g>
	<g>
		<linearGradient id="SVGID_9_" gradientUnits="userSpaceOnUse" x1="108.4" y1="-414.6667" x2="125.4667" y2="-414.6667">
			<stop  offset="0" style="stop-color:#FF8A00"/>
			<stop  offset="0.3114" style="stop-color:#F3661F"/>
			<stop  offset="1" style="stop-color:#DA1B60"/>
		</linearGradient>
		<rect x="108.4" y="-431.7" class="st8" width="17.1" height="34.1"/>
	</g>
</g>
<g>
	<g>
		<linearGradient id="SVGID_10_" gradientUnits="userSpaceOnUse" x1="236.4" y1="-465.8667" x2="253.4667" y2="-465.8667">
			<stop  offset="0" style="stop-color:#FF8A00"/>
			<stop  offset="0.3114" style="stop-color:#F3661F"/>
			<stop  offset="1" style="stop-color:#DA1B60"/>
		</linearGradient>
		<rect x="236.4" y="-474.4" class="st9" width="17.1" height="17.1"/>
	</g>
</g>
<g>
	<g>
		
			<linearGradient id="SVGID_11_" gradientUnits="userSpaceOnUse" x1="433.1329" y1="-16532.5332" x2="501.3995" y2="-16532.5332" gradientTransform="matrix(1 0 0 -1 0 -16896)">
			<stop  offset="0" style="stop-color:#FF8A00"/>
			<stop  offset="0.3114" style="stop-color:#F3661F"/>
			<stop  offset="1" style="stop-color:#DA1B60"/>
		</linearGradient>
		<path class="st10" d="M467.3-397.6c-18.9,0-34.1,15.3-34.1,34.1c0,18.9,15.3,34.1,34.1,34.1c18.9,0,34.1-15.3,34.1-34.1
			C501.4-382.3,486.1-397.6,467.3-397.6z M467.3-346.4c-9.4,0-17.1-7.6-17.1-17.1c0-9.4,7.6-17.1,17.1-17.1
			c9.4,0,17.1,7.6,17.1,17.1C484.3-354,476.7-346.4,467.3-346.4z"/>
	</g>
</g>
<g id="Icon_Test_4_">
	<linearGradient id="SVGID_12_" gradientUnits="userSpaceOnUse" x1="15.7805" y1="-247.8288" x2="400.093" y2="-247.8288">
		<stop  offset="0" style="stop-color:#FF8A00"/>
		<stop  offset="0.3114" style="stop-color:#F3661F"/>
		<stop  offset="1" style="stop-color:#DA1B60"/>
	</linearGradient>
	<path class="st11" d="M96.2-122.6h-1.1c-44-0.2-79.5-35.9-79.3-79.7c0.2-32.1,19.7-60.9,49.6-73c2.6-56.5,50.7-100.2,107.5-97.6
		c37.6,1.7,71.3,23.7,87.8,57.4c24.3-14.9,56.2-7.3,71.1,16.9c4.4,7.1,6.9,15.1,7.5,23.3c35.3,6.5,60.9,37.3,60.8,73
		c0.1,19.9-8.3,38.9-23.1,52.2l-10.5-11.2c11.6-10.4,18.3-25.2,18.2-40.7c0.2-30.6-23.2-56.3-53.9-59.1c-4.1-0.4-7.2-3.9-7-8v-1.1
		c0-0.5,0-1,0-1.5c0-20-16.2-36.3-36.4-36.4c-9.4,0-18.4,3.6-25.1,10.1c-1.9,1.8-4.5,2.6-7.1,2c-2.4-0.6-4.4-2.4-5.2-4.7
		c-16.8-45.1-67.2-68.2-112.6-51.4c-34.5,12.7-57.3,45.5-57.2,82.1c0,3.3-2.1,6.2-5.2,7.3c-33.7,11.1-52.1,47.2-41,80.8
		c8.6,26.1,33.1,43.8,60.7,44h1.4V-122.6z"/>
	<linearGradient id="SVGID_13_" gradientUnits="userSpaceOnUse" x1="117.9132" y1="-128.0349" x2="356.8904" y2="-128.0349">
		<stop  offset="0" style="stop-color:#FF8A00"/>
		<stop  offset="0.3114" style="stop-color:#F3661F"/>
		<stop  offset="1" style="stop-color:#DA1B60"/>
	</linearGradient>
	<path class="st12" d="M326.2-162.7c-9.1-26.6-29.8-47.6-56.3-57.2c-1.5-17.9-17.3-31.2-35.3-29.7c-15.9,1.3-28.5,13.9-29.8,29.7
		c-26.5,9.7-47.2,30.7-56.3,57.2c-18,1.2-31.6,16.7-30.4,34.5c1.1,16.9,15.1,30,32.1,30.3c9.2,23.2,27.3,41.8,50.2,51.7v39.3h15.4
		v-33.9c5,1.3,10.2,2,15.4,2.4v31.9h15.4v-32.4c5.2-0.5,10.4-1.5,15.4-2.9v35h15.4v-40.5c21.8-10.2,38.9-28.3,47.8-50.6
		c18-0.4,32.3-15.3,31.9-33.2c-0.4-16.8-13.6-30.6-30.5-31.7L326.2-162.7z M151.1-113.1c-9.6,0-17.3-7.7-17.3-17.2
		s7.8-17.2,17.3-17.2s17.3,7.7,17.3,17.2S160.7-113.1,151.1-113.1z M200.1-63.1c-15.4-8.5-27.6-21.8-34.6-37.8
		c8.7-4,15.1-11.6,17.5-20.8h17.1V-63.1z M230.8-54c-5.2-0.4-10.4-1.4-15.4-2.8v-72.5c0-4.2-3.4-7.7-7.7-7.7h-24.6
		c-2.3-10.3-9.5-18.9-19.3-23c7.7-20.1,23.5-36.1,43.5-44.2c4.2,9.8,13,16.8,23.5,18.9V-54z M237.3-200.1c-9.6,0-17.3-7.7-17.3-17.2
		c0-9.5,7.8-17.2,17.3-17.2c9.6,0,17.3,7.7,17.3,17.2C254.6-207.9,246.9-200.1,237.3-200.1L237.3-200.1z M269.5-136.9
		c-4.2,0-7.7,3.4-7.7,7.7v71.6c-5,1.6-10.2,2.7-15.4,3.4v-131.9c9.4-2.6,17.1-9.3,21-18.3c20,8.1,35.8,24.1,43.5,44.2
		c-9.8,4.1-17,12.6-19.3,23L269.5-136.9z M277.2-64.5v-57.1h14.9c2.6,9.1,9,16.7,17.6,20.7c-6.8,15.2-18.3,28-32.8,36.4L277.2-64.5z
		 M323.4-113.1c-9.6,0-17.3-7.7-17.3-17.2s7.8-17.2,17.3-17.2s17.3,7.7,17.3,17.2C340.7-120.8,333-113.1,323.4-113.1L323.4-113.1z"
		/>
</g>
<g>
	<g>
		
			<linearGradient id="SVGID_14_" gradientUnits="userSpaceOnUse" x1="433.1329" y1="-16765.7207" x2="501.3995" y2="-16765.7207" gradientTransform="matrix(1 0 0 -1 0 -16896)">
			<stop  offset="0" style="stop-color:#FF8A00"/>
			<stop  offset="0.3114" style="stop-color:#F3661F"/>
			<stop  offset="1" style="stop-color:#DA1B60"/>
		</linearGradient>
		<path class="st13" d="M467.3-164.4c-18.9,0-34.1,15.3-34.1,34.1s15.3,34.1,34.1,34.1c18.9,0,34.1-15.3,34.1-34.1
			S486.1-164.4,467.3-164.4z M467.3-113.2c-9.4,0-17.1-7.6-17.1-17.1s7.6-17.1,17.1-17.1c9.4,0,17.1,7.6,17.1,17.1
			S476.7-113.2,467.3-113.2z"/>
	</g>
</g>
</svg>
