<?xml version="1.0" encoding="utf-8"?>
<!-- Generator: Adobe Illustrator 22.1.0, SVG Export Plug-In . SVG Version: 6.00 Build 0)  -->
<svg version="1.1" id="Capa_1" xmlns="http://www.w3.org/2000/svg" xmlns:xlink="http://www.w3.org/1999/xlink" x="0px" y="0px"
	 viewBox="6 -512 512 512" style="enable-background:new 6 -512 512 512;" xml:space="preserve">
<style type="text/css">
	.st0{fill:url(#XMLID_2_);}
	.st1{fill:url(#XMLID_3_);}
	.st2{fill:#FFFFFF;}
	.st3{fill:url(#SVGID_1_);}
	.st4{fill:url(#SVGID_2_);}
	.st5{fill:url(#SVGID_3_);}
	.st6{fill:url(#SVGID_4_);}
	.st7{fill:url(#SVGID_5_);}
	.st8{fill:url(#SVGID_6_);}
	.st9{fill:url(#SVGID_7_);}
	.st10{fill:url(#SVGID_8_);}
	.st11{fill:#F5A8A0;}
	.st12{fill:url(#SVGID_9_);}
	.st13{fill:url(#SVGID_10_);}
	.st14{fill:url(#SVGID_11_);}
	.st15{fill:#161619;}
	.st16{fill:url(#SVGID_12_);}
	.st17{fill:url(#SVGID_13_);}
</style>
<g>
	<g id="XMLID_780_">
		
			<linearGradient id="XMLID_2_" gradientUnits="userSpaceOnUse" x1="107.5725" y1="-225.8988" x2="400.0506" y2="-225.8988" gradientTransform="matrix(1 0 0 -1 0 -512)">
			<stop  offset="0" style="stop-color:#FF8A00"/>
			<stop  offset="0.3114" style="stop-color:#F3661F"/>
			<stop  offset="1" style="stop-color:#DA1B60"/>
		</linearGradient>
		<path id="XMLID_816_" class="st0" d="M141.2-188h225.3c18.4,0,33.6-14.9,33.6-33.6v-129.1c0-18.4-14.9-33.6-33.6-33.6H141.2
			c-18.4,0-33.6,14.9-33.6,33.6v129.1C107.6-202.9,122.9-188,141.2-188z M123.2-350.6c0-9.9,8-17.9,17.9-17.9h225.3
			c9.9,0,17.9,8,17.9,17.9v129.1c0,9.9-8,17.9-17.9,17.9H141.2c-9.9,0-17.9-8-17.9-17.9V-350.6z"/>
		
			<linearGradient id="XMLID_3_" gradientUnits="userSpaceOnUse" x1="85.4056" y1="-358.4318" x2="422.9669" y2="-358.4318" gradientTransform="matrix(1 0 0 -1 0 -512)">
			<stop  offset="0" style="stop-color:#FF8A00"/>
			<stop  offset="0.3114" style="stop-color:#F3661F"/>
			<stop  offset="1" style="stop-color:#DA1B60"/>
		</linearGradient>
		<path id="XMLID_781_" class="st1" d="M399.7-179.2H108.3c-12.6,0-22.9,10.3-22.9,22.9v5.4c0,12.6,10.3,22.9,22.9,22.9h291.7
			c12.6,0,22.9-10.3,22.9-22.9v-5.4C422.6-168.9,412.3-179.2,399.7-179.2z M407.4-150.9c0,4.2-3.4,7.2-7.2,7.2H108.3
			c-4.2,0-7.2-3.4-7.2-7.2v-5.4c0-4.2,3.4-7.2,7.2-7.2h291.7c4.2,0,7.2,3.4,7.2,7.2L407.4-150.9L407.4-150.9z"/>
	</g>
	<path class="st2" d="M412.5-358.8l-0.1,2.2c-0.1,2.2,0.6,4.4,1.9,6.2l1.4,1.8c2.8,3.7,2.6,8.8-0.6,12.2l-1.6,1.7
		c-1.5,1.6-2.4,3.8-2.5,6l-0.1,2.2c-0.2,4.6-3.7,8.4-8.3,9l-2.2,0.3c-2.2,0.3-4.2,1.4-5.8,3l-1.6,1.6c-3.1,3.4-8.2,4.1-12.2,1.6
		l-1.9-1.2c-1.9-1.2-4.1-1.7-6.4-1.4l-2.2,0.2c-4.6,0.6-8.9-2.2-10.3-6.6l-0.7-2.2c-0.7-2.1-2.1-4-3.9-5.2l-1.9-1.2
		c-3.9-2.5-5.4-7.4-3.7-11.7l0.9-2.1c0.9-2.1,0.9-4.4,0.3-6.5l-0.7-2.2c-1.4-4.4,0.6-9.2,4.7-11.3l2-1.1c2-1.1,3.6-2.7,4.4-4.8
		l0.9-2.1c1.7-4.2,6.4-6.6,10.9-5.6l2.2,0.4c2.2,0.5,4.5,0.2,6.5-0.8l2-1.1c4.1-2.1,9.1-1,11.9,2.7l1.4,1.8c1.4,1.7,3.3,3,5.5,3.5
		l2.2,0.5C409.6-367.6,412.7-363.4,412.5-358.8z"/>
	
		<linearGradient id="SVGID_1_" gradientUnits="userSpaceOnUse" x1="422.8772" y1="-185.3428" x2="437.5831" y2="-185.3428" gradientTransform="matrix(1 0 0 -1 0 -512)">
		<stop  offset="0" style="stop-color:#FF8A00"/>
		<stop  offset="0.3114" style="stop-color:#F3661F"/>
		<stop  offset="1" style="stop-color:#DA1B60"/>
	</linearGradient>
	<path class="st3" d="M430.2-319.3c-4.1,0-7.4-3.3-7.4-7.4c0-4.1,3.3-7.4,7.4-7.4c4.1,0,7.4,3.3,7.4,7.4
		C437.6-322.6,434.3-319.4,430.2-319.3z M430.2-330.5c-2.1,0-3.9,1.7-3.9,3.9c0,2.1,1.7,3.9,3.9,3.9s3.9-1.7,3.9-3.9
		C434.1-328.8,432.3-330.5,430.2-330.5L430.2-330.5z"/>
	
		<linearGradient id="SVGID_2_" gradientUnits="userSpaceOnUse" x1="359.9768" y1="-168.3411" x2="404.6574" y2="-168.3411" gradientTransform="matrix(1 0 0 -1 0 -512)">
		<stop  offset="0" style="stop-color:#FF8A00"/>
		<stop  offset="0.3114" style="stop-color:#F3661F"/>
		<stop  offset="1" style="stop-color:#DA1B60"/>
	</linearGradient>
	<path class="st4" d="M401.3-353.6l-0.1,1.5c-0.1,1.4,0.4,2.9,1.2,4.1l0.9,1.2c1.8,2.4,1.7,5.7-0.4,8l-0.9,1.1
		c-1,1.1-1.6,2.5-1.6,3.9l-0.1,1.5c-0.2,3-2.4,5.4-5.4,5.9l-1.5,0.2c-1.4,0.2-2.8,0.9-3.7,1.9l-1,1.1c-2.1,2.2-5.4,2.7-7.9,1
		l-1.2-0.8c-1.2-0.8-2.7-1.1-4.2-0.9l-1.5,0.2c-3,0.4-5.9-1.4-6.7-4.3l-0.4-1.4c-0.4-1.4-1.4-2.6-2.6-3.4l-1.2-0.8
		c-2.5-1.6-3.5-4.9-2.3-7.6l0.6-1.4c0.6-1.4,0.6-2.9,0.1-4.2l-0.4-1.4c-0.9-2.9,0.4-6,3.1-7.4l1.3-0.7c1.3-0.7,2.3-1.8,2.9-3.1
		l0.6-1.4c1.2-2.8,4.2-4.4,7.1-3.7l1.4,0.3c1.4,0.3,2.9,0.1,4.2-0.6l1.3-0.7c2.7-1.4,6-0.6,7.8,1.7l0.9,1.2c0.9,1.2,2.1,2,3.6,2.3
		l1.4,0.3C399.4-359.2,401.4-356.6,401.3-353.6z"/>
	
		<linearGradient id="SVGID_3_" gradientUnits="userSpaceOnUse" x1="338.92" y1="-227.1788" x2="384.1279" y2="-227.1788" gradientTransform="matrix(1 0 0 -1 0 -512)">
		<stop  offset="0" style="stop-color:#FF8A00"/>
		<stop  offset="0.3114" style="stop-color:#F3661F"/>
		<stop  offset="1" style="stop-color:#DA1B60"/>
	</linearGradient>
	<polygon class="st5" points="359.7,-254.7 354.2,-270.2 338.9,-264.1 361.1,-315 364.3,-313.5 345.5,-270.6 356.2,-274.8 
		360,-264.1 380.9,-310.3 384.1,-308.9 	"/>
	
		<linearGradient id="SVGID_4_" gradientUnits="userSpaceOnUse" x1="388.8111" y1="-223.3158" x2="434.0815" y2="-223.3158" gradientTransform="matrix(1 0 0 -1 0 -512)">
		<stop  offset="0" style="stop-color:#FF8A00"/>
		<stop  offset="0.3114" style="stop-color:#F3661F"/>
		<stop  offset="1" style="stop-color:#DA1B60"/>
	</linearGradient>
	<polygon class="st6" points="413.3,-256.9 388.8,-311.1 392,-312.6 412.9,-266.3 416.7,-277 427.3,-272.8 406.4,-319.1 
		409.6,-320.5 434.1,-266.3 418.8,-272.4 	"/>
	
		<linearGradient id="SVGID_5_" gradientUnits="userSpaceOnUse" x1="346.2795" y1="-168.2701" x2="418.1692" y2="-168.2701" gradientTransform="matrix(1 0 0 -1 0 -512)">
		<stop  offset="0" style="stop-color:#FF8A00"/>
		<stop  offset="0.3114" style="stop-color:#F3661F"/>
		<stop  offset="1" style="stop-color:#DA1B60"/>
	</linearGradient>
	<path class="st7" d="M385-307.6c-2.2,0-4.2-0.6-6.1-1.7l-1.9-1.2c-1.6-1-3.4-1.4-5.2-1.2l-2.2,0.2c-5.4,0.7-10.6-2.6-12.2-7.8
		l-0.7-2.2c-0.6-1.7-1.7-3.2-3.2-4.2l-1.9-1.2c-4.6-2.9-6.4-8.8-4.3-13.8l0.9-2.1c0.7-1.7,0.8-3.6,0.2-5.4l-0.7-2.2
		c-1.6-5.2,0.7-10.9,5.6-13.4l2-1c1.6-0.9,2.9-2.2,3.6-3.9l0.9-2.1c2.1-5.1,7.5-7.9,12.9-6.7l2.2,0.5c1.8,0.4,3.7,0.2,5.3-0.6l2-1.1
		c4.9-2.6,10.9-1.2,14.2,3.1l1.4,1.8c1.1,1.4,2.7,2.4,4.5,2.9l2.2,0.5c5.4,1.2,9.1,6.1,8.8,11.5l-0.1,2.3c-0.1,1.8,0.5,3.6,1.6,5.1
		l1.4,1.8c3.3,4.4,3.1,10.4-0.6,14.5l-1.5,1.7c-1.2,1.4-1.9,3.1-2.1,4.9l-0.1,2.2c-0.2,5.5-4.4,10-9.8,10.7l-2.2,0.3
		c-1.8,0.2-3.4,1.1-4.7,2.4l-1.6,1.7C391.2-308.9,388.2-307.6,385-307.6z M372.8-315.3c2.2,0,4.2,0.6,6.1,1.7l1.9,1.2
		c3.2,2.1,7.4,1.5,9.9-1.3l1.6-1.7c1.8-1.9,4.2-3.2,6.9-3.5l2.2-0.2c3.7-0.5,6.6-3.6,6.7-7.4l0.1-2.2c0.1-2.6,1.2-5.2,3-7.1l1.6-1.7
		c2.6-2.7,2.7-7,0.4-10l-1.4-1.8c-1.6-2.1-2.4-4.7-2.3-7.4l0.1-2.2c0.2-3.7-2.4-7.1-6.1-7.9l-2.2-0.5c-2.6-0.6-4.9-2.1-6.5-4.1
		l-1.4-1.8c-2.3-3-6.4-3.9-9.7-2.2l-2,1.1c-2.4,1.2-5.1,1.6-7.6,1l-2.2-0.5c-3.7-0.8-7.4,1.1-8.9,4.6l-0.9,2.1
		c-1,2.4-2.9,4.4-5.2,5.7l-2,1.1c-3.4,1.7-5,5.6-3.8,9.2l0.7,2.2c0.8,2.6,0.7,5.2-0.4,7.7l-0.9,2.1c-1.4,3.5-0.2,7.5,3,9.6l1.9,1.2
		c2.2,1.4,3.9,3.6,4.7,6.1l0.7,2.3c1.1,3.6,4.7,5.9,8.4,5.4l2.2-0.3C371.8-315.2,372.3-315.3,372.8-315.3z"/>
	
		<linearGradient id="SVGID_6_" gradientUnits="userSpaceOnUse" x1="358.2097" y1="-168.2197" x2="406.4335" y2="-168.2197" gradientTransform="matrix(1 0 0 -1 0 -512)">
		<stop  offset="0" style="stop-color:#FF8A00"/>
		<stop  offset="0.3114" style="stop-color:#F3661F"/>
		<stop  offset="1" style="stop-color:#DA1B60"/>
	</linearGradient>
	<path class="st8" d="M384.1-319.5c-1.5,0-3-0.4-4.3-1.2l-1.2-0.8c-0.9-0.6-1.9-0.8-3-0.7L374-322c-3.9,0.5-7.5-1.8-8.6-5.6L365-329
		c-0.3-1-1-1.9-1.9-2.4l-1.2-0.8c-3.2-2.1-4.5-6.2-3-9.8l0.6-1.4c0.4-1,0.4-2.1,0.1-3.1l-0.4-1.4c-1.2-3.7,0.5-7.7,3.9-9.5l1.3-0.7
		c0.9-0.5,1.7-1.3,2.1-2.2l0.6-1.4c1.5-3.6,5.3-5.6,9.1-4.7l1.4,0.3c1,0.2,2.1,0.1,3.1-0.4l1.2-0.7c3.4-1.8,7.7-0.8,10,2.2l0.9,1.2
		c0.6,0.8,1.6,1.4,2.6,1.6l1.4,0.3c3.8,0.9,6.4,4.3,6.2,8.2l0,0l-0.1,1.5c-0.1,1.1,0.2,2.1,0.9,2.9l0.9,1.2
		c2.4,3.1,2.2,7.4-0.4,10.2l-1,1.1c-0.7,0.7-1.1,1.7-1.2,2.8l-0.1,1.4c-0.2,3.9-3.1,7.1-6.9,7.6l-1.5,0.2c-1.1,0.1-2,0.6-2.7,1.4
		l-1,1.1C388.4-320.4,386.3-319.5,384.1-319.5z M376.1-325.7c1.5,0,3,0.4,4.3,1.2l1.2,0.8c1.8,1.2,4.2,0.9,5.7-0.7l1-1.1
		c1.2-1.4,3-2.2,4.9-2.5l1.5-0.2c2.2-0.3,3.8-2.1,3.9-4.2l0.1-1.5c0.1-1.9,0.8-3.6,2.1-5l1-1.1c1.5-1.6,1.6-4,0.2-5.7l-0.9-1.2
		c-1.1-1.5-1.7-3.3-1.6-5.2l0.1-1.5c0.1-2.2-1.4-4.1-3.5-4.6l-1.4-0.3c-1.8-0.4-3.4-1.4-4.6-2.9l-0.9-1.2c-1.3-1.7-3.7-2.2-5.6-1.2
		l-1.2,0.6c-1.7,0.9-3.6,1.1-5.4,0.7l-1.4-0.3c-2.1-0.5-4.2,0.6-5.1,2.6l-0.6,1.4c-0.7,1.7-2,3.2-3.7,4l-1.2,0.6
		c-1.9,1-2.9,3.2-2.2,5.3l0.4,1.4c0.6,1.8,0.5,3.7-0.2,5.4l-0.6,1.4c-0.8,2-0.1,4.3,1.7,5.5l1.2,0.8c1.6,1,2.7,2.6,3.3,4.3l0.4,1.4
		c0.6,2.1,2.7,3.4,4.9,3.1l1.5-0.2C375.4-325.7,375.8-325.7,376.1-325.7z"/>
	
		<linearGradient id="SVGID_7_" gradientUnits="userSpaceOnUse" x1="329.3464" y1="-224.8685" x2="345.3316" y2="-224.8685" gradientTransform="matrix(1 0 0 -1 0 -512)">
		<stop  offset="0" style="stop-color:#FF8A00"/>
		<stop  offset="0.3114" style="stop-color:#F3661F"/>
		<stop  offset="1" style="stop-color:#DA1B60"/>
	</linearGradient>
	<path class="st9" d="M337.4-279.1c-4.4,0-8-3.6-8-8c0-4.4,3.6-8,8-8c4.4,0,8,3.6,8,8l0,0C345.4-282.7,341.7-279.1,337.4-279.1z
		 M337.4-291.6c-2.5,0-4.5,2-4.5,4.5s2,4.5,4.5,4.5s4.5-2,4.5-4.5l0,0C341.9-289.6,339.8-291.6,337.4-291.6L337.4-291.6z"/>
	
		<linearGradient id="SVGID_8_" gradientUnits="userSpaceOnUse" x1="314.5987" y1="-204.8246" x2="320.5452" y2="-204.8246" gradientTransform="matrix(1 0 0 -1 0 -512)">
		<stop  offset="0" style="stop-color:#FF8A00"/>
		<stop  offset="0.3114" style="stop-color:#F3661F"/>
		<stop  offset="1" style="stop-color:#DA1B60"/>
	</linearGradient>
	<circle class="st10" cx="317.6" cy="-307.2" r="3"/>
	<circle class="st11" cx="351.4" cy="-373.6" r="3.4"/>
	
		<linearGradient id="SVGID_9_" gradientUnits="userSpaceOnUse" x1="417.8466" y1="-153.3725" x2="424.7152" y2="-153.3725" gradientTransform="matrix(1 0 0 -1 0 -512)">
		<stop  offset="0" style="stop-color:#FF8A00"/>
		<stop  offset="0.3114" style="stop-color:#F3661F"/>
		<stop  offset="1" style="stop-color:#DA1B60"/>
	</linearGradient>
	<circle class="st12" cx="421.3" cy="-358.6" r="3.4"/>
	<linearGradient id="SVGID_10_" gradientUnits="userSpaceOnUse" x1="364.4965" y1="-299.0115" x2="373.8987" y2="-299.0115">
		<stop  offset="0" style="stop-color:#FF8A00"/>
		<stop  offset="0.3114" style="stop-color:#F3661F"/>
		<stop  offset="1" style="stop-color:#DA1B60"/>
	</linearGradient>
	<polygon class="st13" points="364.5,-291.6 371.8,-307.4 373.9,-306.5 366.6,-290.6 	"/>
	<linearGradient id="SVGID_11_" gradientUnits="userSpaceOnUse" x1="360.3097" y1="-285.3512" x2="365.5388" y2="-285.3512">
		<stop  offset="0" style="stop-color:#FF8A00"/>
		<stop  offset="0.3114" style="stop-color:#F3661F"/>
		<stop  offset="1" style="stop-color:#DA1B60"/>
	</linearGradient>
	<polygon class="st14" points="360.3,-282.4 363.4,-289.2 365.5,-288.3 362.4,-281.5 	"/>
	<rect x="303.2" y="-318.8" transform="matrix(0.418 -0.9084 0.9084 0.418 465.8269 91.4909)" class="st2" width="2.2" height="2"/>
	<circle class="st2" cx="428.7" cy="-278.8" r="30.6"/>
	<circle class="st15" cx="429.8" cy="-278.8" r="24.8"/>
	
		<linearGradient id="SVGID_12_" gradientUnits="userSpaceOnUse" x1="402.1112" y1="-233.1109" x2="455.2534" y2="-233.1109" gradientTransform="matrix(1 0 0 -1 0 -512)">
		<stop  offset="0" style="stop-color:#FF8A00"/>
		<stop  offset="0.3114" style="stop-color:#F3661F"/>
		<stop  offset="1" style="stop-color:#DA1B60"/>
	</linearGradient>
	<path class="st16" d="M428.7-252.3c-14.7,0-26.6-11.9-26.6-26.6c0-14.7,11.9-26.6,26.6-26.6s26.6,11.9,26.6,26.6l0,0
		C455.2-264.2,443.4-252.3,428.7-252.3z M428.7-301.9c-12.7,0-23,10.3-23,23c0,12.7,10.3,23,23,23c12.7,0,23-10.3,23-23l0,0
		C451.8-291.6,441.4-301.9,428.7-301.9L428.7-301.9z"/>
	<path class="st2" d="M428.1-269.6c-0.4,0-0.8-0.1-1.1-0.4l-7.7-5.4c-0.7-0.5-0.9-1.4-0.4-2.1s1.4-0.9,2.1-0.4l6.9,4.8l11.2-15
		c0.5-0.7,1.4-0.8,2.1-0.3c0.7,0.5,0.8,1.4,0.3,2.1l-11.9,15.9C429.3-269.9,428.7-269.6,428.1-269.6z"/>
</g>
<g>
	<g>
		<g>
			
				<linearGradient id="SVGID_13_" gradientUnits="userSpaceOnUse" x1="11.8105" y1="-16638.2715" x2="499.4072" y2="-16638.2715" gradientTransform="matrix(1 0 0 -1 0 -16896)">
				<stop  offset="0" style="stop-color:#FF8A00"/>
				<stop  offset="0.3114" style="stop-color:#F3661F"/>
				<stop  offset="1" style="stop-color:#DA1B60"/>
			</linearGradient>
			<path class="st17" d="M255.6-501.5C121-501.5,11.8-392.4,11.8-257.7C12-123.1,121-14.1,255.6-13.9
				c134.6,0,243.8-109.2,243.8-243.8S390.3-501.5,255.6-501.5z M255.6-42.6c-118.8,0-215.1-96.3-215.1-215.1
				c0.1-118.7,96.4-215,215.1-215.1c118.8,0,215.1,96.3,215.1,215.1S374.4-42.6,255.6-42.6z"/>
		</g>
	</g>
</g>
</svg>
